<mxfile host="65bd71144e">
    <diagram id="EMGmNI9R8rnJHOcnW24r" name="Page-1">
        <mxGraphModel dx="616" dy="1660" grid="1" gridSize="10" guides="1" tooltips="1" connect="1" arrows="1" fold="1" page="1" pageScale="1" pageWidth="850" pageHeight="1100" math="0" shadow="0">
            <root>
                <mxCell id="0"/>
                <mxCell id="1" parent="0"/>
                <mxCell id="3" value="" style="shape=image;verticalLabelPosition=bottom;labelBackgroundColor=default;verticalAlign=top;aspect=fixed;imageAspect=0;image=data:image/png,iVBORw0KGgoAAAANSUhEUgAABdUAAADSCAYAAACsEil5AAAgAElEQVR4nOzd+1sU5eP/8e//dAOLLIgCSoiKSkqKRp4gRdOyQEVTozxkaoWHTAvNPGKaaVqpaVFa2TsyFTPzSKaGhoqKyuH1/YHPTDvsLgxnFp6P65rr0uGe2XuOO/Oae+/5fwIAAAAAAAAAAK78v86uAAAAAAAAAAAAoYJQHQAAAAAAAAAAlwjVAQAAAAAAAABwiVAdAAAAAAAAAACXCNUBAAAAAAAAAHCJUB0AAAAAAAAAAJcI1QEAAAAAAAAAcIlQHQAAAAAAAAAAlwjVAQAAAAAAAABwiVAdAAAAAAAAAACXCNUBAAAAAAAAAHCpXUL1WbNmyRhjDwUFBW06/4KCAsf8S0pK2nT+7SEjI8Oub0RERGdXp8spLS11bNMlS5YELHfs2DFHufXr13dwTbsf1ikAAAAAAADgHqF6ByFUbxyheudhnQIAAAAAAADuEaq30O3bt1VYWGgPJ06caLQ8oXrjCNU7T3PW6ZkzZxz7fVlZWQfWFAAAAAAAAOh8hOotdO7cOUcdVqxY0Wh5QvXGEap3nuas0y1btjjKFhcXd2BNAQAAAAAAgM4XkqH67t27NWnSJHs4f/58m87fjeaG6m+++aZd3+zs7A6qZehwG6qfOXPGse3379/fwTXtfpqzTgnVAQAAAAAA0NOFZKjeFTQ3VEfj3Ibq6FyE6gAAAAAAAOjpCNVbiFC9bRGqhwZCdQAAAAAAAPR0hOotRKjetgjVQwOhOgAAAAAAAHq6HhWq//jjj8rPz1daWpri4+Pl8Xg0YMAAZWZmasGCBfrss89UU1Pjal6dFaqfPXtWS5Ys0dixYxUTE6Pk5GRlZ2dr6dKlunz5covmef/+fbuf+uTkZPXq1cue75dffqnq6uo2Xgp/HR2qV1VVaceOHXr55Zc1ePBgxcTEKD09XbNnz9auXbtavMzV1dU6duyY8vPzNXLkSCUkJCgqKkqpqamaNm2aVq5cqevXr7fx0nSc1obqHb1+zp07pyVLlujZZ5+V1+tV//79NWbMGH344YcqLy8POM2xY8c0b948DR06VLGxsY5949ChQ82uQ3V1tfbs2aPc3FylpKQoNjZWkZGRGjp0qKZOnarFixfrp59+au2iAgAAAAAAoIOEZKi+du1ax/xLSkoaLV9SUqLMzEzHNMGGYcOGBQ3O9u7d62oexhht377dMa3v50dERASta35+vl0uJSXFHn/jxg1NmjSp0c+MiIjQm2++qfv377tel8XFxerXr1+j8x01apT++ecfSdKSJUvs8UlJSa4/pyluQ/Wff/7ZUW79+vUBy928edNRzvflmzt27FDfvn0bXebU1FQdP368Wcvw888/a/jw4U3uGxEREZozZ46uXbvWrPm3l6bW6bx581zv93/++Wejn9PW6yfYdq6oqNC0adMa/Zy4uDj98MMP9rzKy8ubnMYYo0mTJrkK/mtra7V//36lpKS4WnfZ2dk6e/Zsk/MFAAAAAABA5+r2ofrmzZtdB4JNhbWdFaqfPn1a/fv3d/3Zs2fPdrUet27d6nqeSUlJ+ueff0I6VK+pqdHrr7/uepkjIyP1xx9/uKr/pk2bmr2P9e/f3/X821NHhOrttX4CbeeLFy9qwIABrj7D4/Ho3LlzunHjhgYOHOi6bpmZmY3Wq7q6Wjk5Oc1eZo/HQ6t1AAAAAACALq5bh+o//fRTwOBq4sSJeuONN/Tee+/pjTfe0Lhx4wKWO3PmjGN+nRGq37hxQ/Hx8fZ0L730knbs2KGDBw/qo48+Um5ubsDP37t3b6Pr8NChQ37TREVFKTc3V6tXr9aKFSv0/PPPKywszP57VlaWFi1aZP8/1EL1goIC+/+DBg1SQUGB9u/fr7179+rtt9/WoEGD/NZJamqqHj161GjdAz24CQ8PV2ZmppYvX661a9cqPz8/YNAbGxur06dPt3r9tUZ7h+rtuX4abuctW7bYLcOtFu979uyxt3+g4Dw1NVVDhw61/5+QkKD58+dr9+7dKioq0muvvSaPx9OsY2zNmjUBj6/p06dr6dKlWrNmjd3FTMNy/fv314MHD1q+QQEAAAAAANCuunWoPmrUKEe59PT0oC1pf/31VyUkJDjKv/zyy44y1dXVqqysVGVlpUpKSvxCYOtvlZWVevLkiWPaloTqycnJduA/ZMgQ/f777wGnOXnypBITEx31GTFiRNDPuHfvnh3UW8P06dNVUVHhV/bChQsaMWKEI+QMxVB99uzZjv0xUJ/pVVVVjocG1tBYP9rnz5/3C1xTU1N1/vx5v7J1dXUqLCxURESEo3xaWppqa2tdrqm219Q6raqqsvfrwsJCR9kvv/zSsd83XI72Xj8Nt3N0dLSMMYqPj9eJEyf8yt+/f1/Tp08P+lAgKytL//77r990Z8+e9Ts/zJgxI2Cd/v33X0VGRjrKzp07N+B8a2trtXv3bsfDK2OMtm7dGnDeAAAAAAAA6HzdNlS/evWqo0xcXJxu3brV6HyLi4v9ArpgL6xs7otKWxKqW0N8fHyTfTgfOXLEb7pgfasvW7bMUW7SpEmNvqC1oqIiYAvfUArVreHdd99ttB41NTVKT093TLN8+fKg5Z977jm/hxNVVVWNfkZJSYmioqIc0+3atavRadqT23UqNf9Fpe29fgJtZ4/Ho0uXLgWdf3l5ubxer99048aNa/Q42LVrl9/DgUB2797tKDdx4sQmX4D89ttvO6bJzs5utDwAAAAAAAA6T7cN1Y8ePeook5ub2+R86+rq1Lt3b8d0wcLsjgzVCwsLm6y7JL8XIl69etWvzKNHjxytzT0ej6uXLn777bchH6rHxcXp4cOHTdZl//79juny8vICljt9+rSjXO/evZt8cGNZvXq1Y9rExETV1dW5mrattVeo3hHrJ9B2buwhiKVht0lhYWFNviS0urra0ere4/EEDMsbPrQqKipqsj4N9//Bgwc3OQ0AAAAAAAA6R7cN1Q8cOOAos3DhQlfzPnjwoHbu3GkPgbpEkTouVO/Tp0/QFucNzZgxwzFtoNa6X3zxhaPM/PnzXc1bkoYPHx7SoXpjYbGvP/74wzHdrFmzApZruK02b97sbmElPXjwwO/ls6dOnXI9fVtqr1C9I9ZPoO3sJrhftWqVY5pJkya5qlfDPtAfP37sV6bhcn/55ZdNzvfJkyeO886ePXtc1QcAAAAAAAAdr9uG6r/99pujzMCBA1VZWdlmdeioUD0/P991nRYvXtxkqL5gwQJHmW+//db1/Bu2Hg61UP2ff/5xVZeKigpXoXrDLnGCPYAJ5rXXXnNM31n9aLdXqN4R66fhdu7fv7+reW/btq1Zx69l4sSJTYbqDfudD9b3OgAAAAAAAEJTtw3V79696xeqZmRkBH3ZZ3N1VKi+YcMG13VasmRJk6F6Wlqao8zt27ddz//48eMhG6p7vV7XdXETqpeXlzvKpKSkuJ6/5aOPPnLMw+2vKdpae4TqHbV+Gm7nrKwsV/Pevn27Y7pPP/3U1XS+x3GwUD3Q+w1effVV113fAAAAAAAAoGvrtqG6FLh/8rCwMI0fP16bNm3S+fPnW9yPdUeF6gcPHnRdp6ZC9erqaoWHhzvqUVtb63r+169fD9lQ/emnn3ZdFzehesMHDLNnz3Y9f0vDfuo7q0Vze4TqHbV+Gm7nnJwcV/NuGKq76aJFcheqP3nyxK+rJGOMoqKiNGPGDH322Weu3mMAAAAAAACArqlbh+qVlZVKTk72C7d8h7i4OL388svavn27ysvLXdeho0L106dPu65TU6F6w7B4wIABruct1YfyoRqqv/DCC67r4iZUb9g3fVsM48ePd13HttQeoXpHrZ+uGKpL0qlTpxwvNQ00DB48WAsWLNCXX36pqqoqV58PAAAAAACAztetQ3VJunXrlqZPn+4qtAsPD9ekSZNcBWwdFar/+eefTdbF0lSofvXqVcffMzIyXM/bEhkZGZKhutuwVXIXqhcVFbV5aDxmzBjXdWxL7RGqd9T66aqhuiSdPn1aI0aMcLVsXq9XeXl5nfayWgAAAAAAALjX7UN1y6lTpzR//nz17t3bVcj14osvNtrfeCiG6n/++SehugtuQvWtW7e2eWg8cuRI13VsS+0RqnfU+unKobok1dbW6tChQ5o6dWqTLdeNqX+wt2rVKlVXV7uqDwAAAAAAADpejwnVLdXV1frf//6n1atXa9y4cY0GXcOHDw8aboViqN4wgExOTnY9b8k/bO7Jofq+ffscZdasWaPKyspWDffv33ddx7bUHqF6R62frh6q+7p//76OHDmixYsXB+xz3XfIz893PV8AAAAAAAB0rB4Xqjf08OFDff/998rPz1dsbKxfuPXhhx8GnC4UQ/WHDx86/u7xeJr1otbff/+dUP3/fPPNN44y7777ruv5dzXtEap31PoJpVC9odu3b+vAgQOaMWOGIiIi/M49rTmvAQAAAAAAoP30+FDd1+3bt5Wdne2Yd2pqasCyoRiqS1JcXJyjzL///ut6/sXFxYTq/+fixYuOMrm5ua7n39W0R6jeUesnlEN1X7///rsGDhzomPfChQvbZN4AAAAAAABoW902VD916pRjcOvOnTuKiopyBOCBuoAJ1VD9hRdecJT5/vvvXc9//fr1hOr/p66uzvHLhoSEBD158sT1Z0jSb7/9pp07d9rDjRs3mjV9W2mPUL2j1k9XC9UfPHjgOO9cvHjR1Xwl6fvvv3fMOzMz0/W0AAAAAAAA6DjdNlRPSEhwlCkvL3c9/7S0NMe0N2/e9CsTqqH6Bx984CjTnL6bR40aRajuY+rUqY5y+/fvd/0ZtbW1SklJafE+2pbaI1SXOmb9dLVQvWEL/WHDhrmaryTdvXvXMW1KSorraQEAAAAAANBxum2onp6e7ihz8OBBV/Ourq6W1+t1TBuohW2ohurXr19XeHi4XaZXr16uwtzjx4875k2oLh08eNBRbsSIEXr06JGrz2g4bVpamuv6tbX2CtU7Yv10tVD9/v37fsfJrVu3XM375MmTjunGjh3rajoAAAAAAAB0rG4bqi9dutQvlKupqWly3kVFRY7pnnnmmYDlGobqy5cvb3S+XSVUl6QZM2Y4yk2bNk21tbVB53vnzh2/VsOE6vUPYBITEx1l58yZ0+i6lOpbM/fp08cxXVFRkev6tbXWhOrffPNN0LIdsX66Wqgu+f/SZdGiRU3Ot66uzu+8uXTpUld1AgAAAAAAQMfqkFB9yJAhmjFjRouH999/3zF/N6F6w6DQGKPs7GyVlZUFrHNVVZU+/vhjRytuY4w2bdoUsHzDUH3mzJmNrpOuFKpfvXrVrzV+bm6uKisr/cpeunRJI0eOlDFGYWFhjvUzcOBA13VrSiiG6pJ/i2pjjLKysnT16tWA5Q8fPqykpCRH+VGjRrluwd0eWhOqN/UwoL3XT1cM1Ruen4yp/yVLoONLkv755x/Nnz/fb5rS0lJXdQIAAAAAAEDH6pBQvbXDlClTHPN3E6pL0vPPP+83r/DwcKWnpysvL09r167VihUrlJOTo7i4OL+yw4cPD/pyxbKyMkdZj8ejwsJCHT16VJ9//rn++OMPR/muFKpL0rZt2/yWNzo62l4vK1eu1NSpUx0hemFhoePlk08//bTrujUlVEN1SZo7d27A/TYrK0vLli3TunXrNH/+fL8WzMbUv8Dz+vXrruvWHpoTqu/evdtRNjk5Wbt379bRo0f16aefqqKiwm+a9lw/XTFUr6ysDHg+iY6O1vjx45Wfn69169ZpyZIlmjp1qjwej1/Z5rzrAAAAAAAAAB2rW4fq5eXlGjhwYIs+MyUlpdEwr66uTjExMUGn3759u6N8VwvVJWn16tWu10dOTo7q6uocLdzT09Nd160poRyq19TUaM6cOc3ex3r16hV03+1IzQnVT58+3egyBdpf23P9dMVQXapfp5GRkS0690yfPj3ofAEAAAAAAND5unWoLkm3bt3y60O8scHj8WjRokVBu2rwFai1dyiF6pK0Z88ev/6rGw7Lly+3+6P3HT9+/HjXdWtKKIfqUv1Dlt27dyshIcHVfjZ+/HhX26cjNCdUl6RXXnmlWaG61H7rp6uG6pJ09uzZgK3vgw19+vTR1q1bm+xzHgAAAAAAAJ2rXUL1rujChQtatWqVJk2apKSkJMXExCg8PFx9+vTRkCFDlJOToy1btuj27dvNmu8333yjrKwsJSYmKiIiQjExMRoxYkSjL3Dsav79919t3LhRGRkZio+Pl9fr1bBhwzRv3jxHv8737t1zhICzZ8/uxFp3Tffv39f+/fuVm5ur1NRU9enTRx6PRwkJCRozZoyWLVumU6dOdXY1W+Xx48faunWr0tPT1bdvX0VERCguLk5jxoxpsiubnrB+fNXV1enHH3/U4sWLlZGRoX79+ikqKkoej0fx8fFKS0vT/PnzdeDAgU7tVx8AAAAAAADu9ZhQHa3XsDX5mjVrOrtKAAAAAAAAANChCNV7mJs3b+rHH3+0h+a8JLOoqMgRqn/++eftWFMAAAAAAAAA6HoI1XuY4uJiRzA+f/5819NmZ2fb04WFham8vLwdawoAAAAAAAAAXQ+heg9z69YthYeH2+F4v3799PDhwyan++233xxh/IQJEzqgtgAAAAAAAADQtRCq90AvvviiIyDPyclRdXV10PIXLlxQYmKiY5qvv/66A2vcc1RWVqqkpKRDhvPnz3f24gIAAAAAAAAhh1C9B7p586b69+/vCMkHDx6sLVu26IcfftCFCxdUWlqqgwcPasGCBfJ4PI6yU6dO7exF6LZ+/vlnx7puzyEzM7OzFxcAAAAAAAAIOYTqPdTJkyf9wnI3Q0ZGhioqKjq7+t0WoToAAAAAAADQtRGq92Bnz57V1KlTXQWwXq9X77zzjqv+1wEAAAAAAACguyJUh0pKSvTmm29q6tSpGjJkiCIjIxUXF6fU1FTl5OTok08+0e3btzu7mgAAAAAAAADQ6QjVAQAAAAAAAABwiVAdAAAAAAAAAACXCNUBAAAAAAAAAHCJUB0AAAAAAAAAAJcI1QEAAAAAAAAAcIlQHQAAAAAAAAAAlwjVAQAAAAAAAABwiVAdAAAAAAAAAACXCNUBAAAAAAAAAHCJUB0AAAAAAAAAAJcI1QEAAAAAAAAAcIlQHQAAAAAAAAAAlwjVAQAAAAAAAABwiVAdAAAAAAAAAACXCNUBAAAAAAAAAHCJUB0AAAAAAAAAAJcI1QEAAAAAAAAAcKnNQvULFy4wMDAwMDAwMDAwMDAwMDAwMDAwMDAwdOuBluoAAAAAAAAAALhEqA4AAAAAAAAAgEuE6gAAAAAAAAAAuESoDgAAAAAAAACAS4TqAAAAAAAAAAC4RKgOAAAAAAAAAIBLhOoAAAAAAAAAALhEqA4AAAAAAAAAgEuE6gAAAAAAAAAAuESoDgAAAAAAAACAS4TqAAAAAAAAAAC4RKgOAAAAAAAAAIBLhOoAAAAAAAAAALhEqA4AAAAAAAAAgEsdHqpfunRJxhgZY1RYWGiP79+/vz3eGiIjIzVw4EAtWrRI9+7d6+iqtpklS5bIGKOUlBR73IgRI2SMUX5+fifWrOvq1auX3z4CWHJycvzOF8YYxcfHa+LEiTp27Jir+Rw6dMie9ubNm+1c63oVFRX2Z+7fv7/Rsn/++add1u0ydaZZs2bJGKNevXrZ427fvq1Lly6prKysE2vWeW7duqXJkyfL6/UqKipK169fb9b0gb4/Ao0LpK2OE7dqa2t16dIlXbp0SZWVlfb4t956y/7soqIiv+lGjhwpY4xGjhzZpvWBtH379oD7QHR0tEaNGqVt27appqamyfk057zV0/3000+aOXOmUlNTFR0drdGjR+u1114LeA7s6efHjtKcbfLgwQP7PFZdXd3qz+5Ox06oXZME05Xuy9p6f0PLBNr+nbVPuL3Gk6T4+HgZY1RQUNABNes8u3btUlJSkiIiIvTGG2+02+cEui9szvZo77oE43ut9/jx4w6qYei7du2aLl26pPLy8kbLNWdbWPdeGRkZbVhTNDRlyhQZYzRlypTOroqkLh6q+w4DBgwI2ZuOrnTxFioI1dGYYGGh73D48OEm50Oo3rYChepWoJqUlNSJNes8K1assLdhUlKSbty40azp2yNUb+5x4lZlZaU93927d9vjfUP1+Ph4R+AuEaq3p2Chuu+wdOnSJufTnYLB9lJbW+s43gM9yNi7d69jmp5+fmxvLdkmR44csf/eFvcd3enYCbVrkmC60n1ZW+9vaBlC9a7r3r17ioiIkDFGXq9XK1asaLfPIlTvWaz7jzlz5jRajlC96yFUbyJUf+6551RaWqrS0lIVFxfr1Vdftcvn5eV1dHXbRKCT8Z9//qnS0lL9/fffnVizrotQHY2xvrCioqLs88Wvv/6qjz/+WB6PR8YYDR8+vMn53L17156+o1oIVVdX2595586dRsuG2g0sobq/GTNmtCowbotQvbXHiVtuQnVjjN8NEaF6+/G90dq3b59KS0t16tQpHThwQAMGDJAxRmFhYbp9+3aj82nOeaun2rFjh72uU1NTtWXLFh09elTr1q1TbGysva5LS0vtaXr6+bG9tWSbtHXI2Z2OnVC7JgmmK92XEap3DYEC9M7aJ65fv67S0lKdP3++ybI9IVT/448/7GPkyJEj7fpZgcLT5myPttSce1RC9ZZxG6o3Z1sQqncMQvUmQvVAKyYvL8++8L106VLHVbaNuG0RYa2DFStWaO/evUpPT7d/pnr8+HHHPGtqarR+/Xqlp6fL6/VqyJAhWrt2raqqqppdP7ef+/PPP9vbzvcGpKSkxG/8pk2b7HDt2LFjSklJkdfr1XPPPafjx4/rzp07mjVrlvr166f+/ftr0aJFevjwoT1PK1T/8MMPVVBQoMGDB+upp57SvHnzVFFR0ex1sXPnTruOFRUVmj17tuLi4pq9rtA1WF9Y0dHRfn+bPXu2jDGKiIhQdXW145xTXFysDRs2KC4uTqdOnQr65PnJkydavXq1Ro0aJa/Xq2HDhmnFihV+LWzPnz+vF198UYmJierbt6+mTJmikpKSRuveWKu1jz/+WGlpaYqLi9OMGTN04sSJkLqBbRiqf/DBB3r66aft1iXz5s3ThQsXJLk7blt7HulMtbW1mjdvnpKTk2WMUUJCgubNm6eysrJmnUvbIlR3c5xI0okTJzRp0iT169dPUVFRSklJ0YoVK3T37l17Omsbjx49WmVlZRo3bpymT5+uCxcu2N/VxhiNHTtWH3zwgST/UN3j8ejKlSv2PIOF6mVlZZo1a5ZSUlIUExOjjIwMFRYWuuquBPV8b7R89zVJ+uSTT+y/nThxQpLzeuD7779XSkqKNmzYEPS85fZceefOHeXn52vo0KH29UXDFsKhrLy83A5pR48erQcPHjj+XlZW5vh7bW1t0PPjtm3b7HXt+33y6NEjRUVFyRijdevWdfQihpyWbJPDhw8rKyvLXv8vv/yyDh8+3KptEuzYKS8v1xtvvKHBgwerV69eSklJUX5+vl+AV1paqunTpysxMVFer1fDhw/XunXrHMuTmZkpY4ymTZvmmHbSpEkBxx86dEgTJ05UbGyskpKStGDBgoBdk4X6NUkwXeW+rC32N6vcRx99pA8//FBDhw5VYmKi5syZ49eisi3vHbsbNy3Vfe8njh49qnfeeUdDhgxRbGyspk2bpqtXrzrm2dLvvWDXeMeOHdOECRMUGxurcePG6dSpU10+VG/sHkxqeh0dPnxYL774oj2P7Oxsbdq0yf57U+eypj6/Ibct1X2vhc+cOaOsrCz17t1bQ4YM0ebNmwPO1805t6m6SFJVVZUWLVqkAQMGKDk5WcuWLdOWLVu6Vah++vRpTZ061b6/zszM1E8//eQoU1ZWprlz5yo5OVmRkZEaMGCAZs6cqYsXL9plguU/1j1a3759ZYzR4MGDNW/ePNXW1gasT7BtUVZWppdeekl9+/ZVWlqaPv3005AI1ZvKxdycu6ZNm2Yfkx9++KESExMVGxurF154QX///bfOnTtnHxcpKSnaunWrY/rWbD8pcKj+5ptv2rlBsGO8vYREqH7y5El7ms8++6wDa9s2mnvxlpKS4gggrJ3j2rVrdtkXXnjB/ltcXJz97wkTJjS7xa3bz21JqG6MUXh4uN88A32Wb+tFK1S3LhZ8h5SUFEdrHzfrwvegnD9/vl0PhKbGwsL8/Hw7uGsYqs+bN8/+d7BQvba2Vs8995zffmeM0bhx4+xA7+eff7ZvbqKjo+1/ezweffvtt0HrHuwGe9myZX6f57v/h8INbMNQffz48X7L9OOPP0pyd9y29jzSmWpqagLuQ6dOneoSoXrD4+S3336zW683HF544QV7Omsbp6WlKT093f7e/vHHH/2mGz9+vCRnqJ6dnS1jjF588UV7noFC9V9//VVerzdgfTIzM1VXV9fMLdIzNRaq79+/3/7bL7/8Ium/64EZM2bYgWNhYWHA85bbc2VFRYXdKj4iIsKerzFdNwhorl27dtnL9MMPPwQss3btWrvMxYsXg54fb926ZZ/vfNfP8ePH7XKh2MCko7Vkm6xevdpvm6xevbpV2yTQsVNVVWU/ULGOC+vfSUlJ+vfffyVJFy5ccJwHfctNmTLFPg82J1TfsGGDPY++ffvay5WYmOi4z+gO1yTBdJX7srbY36z/DxkyJOD2+ueff1pVx56iuaF6oPU9YsSINvneC7R/fv31137XwTExMYqMjOzS36WN3YO5WUeBjhErK3JzLmvs8wNpbqiekJCg3r17+9Xxyy+/tMu6Pee6qUt1dbWeffbZRs/NoR6qf/PNN47vOt/hu+++k1TfctxqtNRwSExMtBt2BMt/gt2jBWu0E2hblJWVBcyprHNrqITqDXMxt+cuK1QPdO+YnJysmJgYv/FWPtLa7Sf5h+p79+61y3711VcduTolhaBK6n8AACAASURBVEiofvfuXcfFRqhp7sWbx+PRnj17dPHiRcdF7fbt2yX991NBj8ej3377TZL0ww8/2OUCvQiuMW4/t6Whel5eni5duqQ1a9bY42JjY/Xjjz/q119/tQ8q324IrFDdmPrWGNeuXXPM8/3332/WuvA9KHv37q1ly5bpo48+atZ6QtcRKCysrq7WL7/8oj59+siY+tBPcp5zwsLCNGfOHBUWFurGjRsBvyQ/++wze9znn3+uyspKx7hDhw6prq5Oo0aNkjH1LYuqq6v16NEjPf/88zKm/h0QwW5QAt1gX7582b7IeuWVV3TlyhUdOXLE8YUUCjewbrt/cXvctvY80hVY3b9YAbPUvHNpW4fqwY4T62YjKSlJ5eXlevDggZYuXSpj6h9oWC3ZrG1sff57772nL774QpK77l9+//13+/xuBV0NQ/Xa2lp73IABA3Tq1ClVVlbq/ffft+ezZ8+e5m+MHihQqF5XV6crV67YN2ZhYWH2L8B832+TlZWlDz74QCUlJQHPW27OldJ/2z8lJUW3bt2SJK1atcr+7D///LMT1kzbslrHhIWF6cmTJwHL/O9//7PXzYEDByQF7/7Far36zDPP2OOsvsGtYxaNa+k2CdYdR0u3SaBj57vvvrPHFRcXq6amRr/88ot9HbBjxw5J0jvvvCNj6oOY69evq6qqyvG9aP3yy22oXl5ebof0VmvPmzdvKiEhQcYYzZw5U1L3uSYJpivdl7V2f7OmNab+vvratWv6+OOP7XFvv/12q+vYEzQ3VE9OTtbx48d15swZu7GAMcb+PmvN917D/bO6ulqDBw+WMfXdWJ0+fVpnz551PJgLhVC94T2Y23V07tw5ex5Wwxy357LGPj+Q5obqxhgtW7ZMly5d0meffWafN3NycppVT7d12b17tz1u/fr1+uuvv1RYWOg4D4RyqF5dXW0/xBw7dqxu3rypK1eu2I0QRowYIcl5/VlSUqLq6mp9+eWXft9PTeU/relTfc6cOTKm/uHW4cOHdeXKFeXm5trlQiVUb7he3B6XVqhujNHmzZv1559/On5VMnr0aP3xxx/66quv7HGLFy+W1DbbzzdULy0tte8trV9Jd7SQCNUlKSwsTMbUP6UINc29ePPtO/7hw4f2E6B33nlH0n/d4TRcV1bI98orrzSrfm4/t6WhutWa4vHjx/Y43+1oXaD279/fHmcdGL5BlPTfAZyamtqsdeF7ULZ3f2xof25ewGi1EvA957z11luO+QT6knzppZdkTH1LS1+LFi3StGnTtGfPHl25csWezre1w9GjR+3xwfreC3SD/d5779lfzL7dJvi2oguFG1i3obrb47a155GuoCuE6m6Ok99++03Hjh2z99vy8nK98sorfseH7za2LrYsbkL1yspKrVy5UsbUBwM1NTV+ofrFixft8lbQZbFax0+dOtXdBujh3LyodOHChXZ563pg1KhRjl8DBDpvuTlXSlJiYqLfNV9FRYV9jbFt27Z2XAMdw7o26devX9Ay165ds9eh1XVDsFDdt5W1deylpaU5pkXjWrpNgoWcLd0mgY6dzz//3B43c+ZMHT9+XI8fP7b7cLYCn9dee03G1AehBQUFdn+uVt+u1vWC21DdWgav1+tokWd9f1o/q+4u1yTBdKX7stbub1aZrKwsx3yt/d9qaNDW947dTXND9V27dtnlfB9OWC1pW/O913D/9O12yeqqTXJeS4ZCqN7wHsztOgoUqrs9lzX2+YE0N1R/6qmnHNdK48aNkzFGzz77bLPq6bYuEydOlDFGEydOdJS1vgOMCe1Q/ffff7eXw/cXZiUlJZo2bZqmT5+uR48e6fLlyzp27Jj+97//SZLu37/veLhgfdc2lf+0NFSvrq62W9O/9957drn79+/bD59DJVRvuF7cHpfWd0xiYqJ9DPj+msq3uxjre2bWrFmS1CbbzwrV09PT7Zb1ubm5bbmamiUkQvV79+7Z0/SEluoNuy9oOH7MmDGN3iBbT/Hccvu5LQ3VfVnjfJ8SFhQUyJjAoXrDiwTrJ1Qej0c1NTWu10XDPpkQ2hoLC3v37m238pKc5xyr5aQl0AWLdWwuWrQo6OcXFxc3ut8F+ixLoBtsq3/rhg+RQq3/UrehutvjtrXnka6gq4bqDY8TSdq3b5+mTp3q+Fl4w+PD2saBvmfchuoPHjywv1+Kior8QnXfkKFh/8JW69PBgwc3uuyo11io7vF4tHDhQkd/utZ2WbJkiWM+gc5bbs6VDx8+bPJc2fCzQlFjraKtXy2dPXvWXuZ9+/ZJCh6qV1RU2Ddsu3fvVnl5uT0tXb+409JtEizkbOk2CXTs3LlzR0899ZTjOPB6vZo2bZp+/vlne9r//e9/fj+tTkhI0Pz58/XXX3/Z5dyG6m+//XaTx6PVb2l3uCYJpivdl7V2f7PGNbw//vDDD2VM/YvK6+rq2vzesbtpbqheXFxsl2s4vrXfew33T+v9Jw3PZdXV1Xajw1AI1X3vi5qzjgKF6m7PZY3dAwbSkj7VfTUc77aebutiBZ4Nj3ffX/GGcqjuu8y3b99utGxJSYny8vICdiMSKJQNtJ5bGqpfvnzZb5+0TJgwQcaETqjuu16ac1xaoXpmZqY9ve/97ZkzZ+zxGRkZMua/UF1q/fazQnXfoTPXeUiE6qdOnbKn6Ql9qjd18Wa1VBgyZIjmzJnjN/i2OnOjM0J135eMNCdUt+YbGRmpmpoa1+vC96DsKi8yRMtZYWFUVJTdYqu0tFRXrlzxe8lIsItgKfAFy7Bhw5q84P3666/t6V555ZWA+17Dl1hZAt1gW19MDW9gfc99oXAD6zZUd3vctvY80hV0hVDdzXHi22/l888/r8LCQq1bt87v+Ah2IyG5D9Ulac+ePTKmvh/IQYMGyRh3obo1rwEDBjS67KjnG6rv27fP3gfOnz8f8MYr2PVAoPOWm3Olb/d948ePD3i8N3x5USjy/Um27w3WkydP9MILL2jx4sWOLhmsm41gobokTZ06VcbU92+/b98+GUPw1Rwt3SbBQk6pZdsk2HtU7t69q61bt2rixIl+fSX7nj/Lysq0evVqDR8+3FEmKirK/mWR21Dd6tKrd+/eAY/FOXPm6MaNG93mmiSYrnRf1tr9zZp2zZo1jvFWq7+YmJhW17EnaMtQvbXfew33z48++kjG1IfqDbuWtN7nFAqhuu86a846ChSquz2XNXYPGEhbh+pu6+m2LlZXMg1Ddd9WvqEcqn/xxRf2cjTWCPL48eP2A6XU1FStWrXK0c1IoFA2UP7T0lD9zJkzAa8vpP/C3lAJ1X3XS3OOy6ZCdd/724aheltsP99Q3beRQmf0py6FSKju+2IJ3zfChoq2vnizfpL/8ssvO8pVVVXZrQCbw+3n+vY9+c0339jlvv32W78DqK1C9YY/b7ICKuvnjG7XBaF699LYCxgbam6obn1JTJgwwVH2rbfeUk5Ojvbv36/z58/b0/l281JXV6fKykpVVlY2q091q0VdbGys4/j1fZt7KNzAug3V3R633TVUb865tL1eVNqQ9bId3xvroqIiv+OjrUL12tpauysXa3DT/YvV2i47O7vJZULjLyoNpDmhuptzpST7lw8NQ4T79++rsrJSjx49as0idgnl5eX2y8rGjBljX2dcvHjRXn6rxfHIkSPtn8o2FqpbL12KiYmx++m03ieDprV0mzQWcrZkmwQ6dv755x+VlZXZXWhVVFRo9+7d6tevn4ypf7Ap1QfqZWVl9nnz6tWrjoedVjcgVv/b6enpjs+2zrFWqL5t2zYZ49/lQHV1tX3tInWfa5JgutJ9WWv3N2vaSZMmOcZbfdta+0Rb3zt2N20Zqkut+95ruH8ePnzYnr/1UnHJGTaHWqguuV9HgUJ1t+eyzg7V3dbTbV2sh2MNu3uy7jWMCe1Q3Tes9u3q6OTJk8rJyVFubq4eP35snw+t7oAl57Zu71D9zp07ft/DUv1De+t7PBRDdcn9cdmaUL0ttp8VqicnJ+vff/+1Gx4MHjw46Ht02lOXC9XHjh2rc+fO6dy5czp+/Ljy8/Pt8rNnz+7o6raJtr54+/TTT2VM/U9FrZfN/Pnnn3Yo0nD6prj93LKyMsfF29mzZ/X111/bJ3jfA6itQnVjjDZs2KCbN29qx44d9lOt9evXN2tdEKp3L+0Zqu/YscMet3fvXj18+NDxRulvvvnG8dKg2bNn68mTJ3r8+LHdIiEqKsq+WV63bp1WrFihTz75RFLgG+yDBw/a42bNmqVr167p2LFjjreKh8INbGOhum9/gm6P2+4aqjfnXNpRobrV+mXy5Mm6e/eurly5YrdE9j0+3Ibqvt/vgUJ1yflwwZj/QnXfXyElJyfr7Nmzqqqq0vr16+2yO3fulFTfcnLFihVasWKFrl271uRy9jTtGaq7OVdK0ty5c2VM/cPw8vJy1dXVOV5I9O2337b9gneCrVu32ss0fPhw7dixQ999950WLFjg2M99+4UMdH60VFZWKjIyUsYY+9onFBuWdKaWbBPfkNP3nSlSy7ZJoGPn9ddft89vVivF8vJypaamypj6lsmSNHToUBljNH36dD18+FB1dXU6c+aMXYctW7ZI+u8Ys47F8+fP29+JxvwXql++fNnuUsTqF/XOnTsaO3asjPkvgO0u1yTBdKX7stbub7778aZNm3Tz5k1t27bNLr9x48ZW17EnaOtQvTXfew33z/LycvsB4IgRI/T777/r/PnzGj16tD2/UAzV3a6jQKG623NZZ4fqbuvpti6LFy+2x23cuNE+3n3PA6Ecqj9+/NjuHzsjI8N+AG11qWKtLyvQjY+P119//aW7d+863gPV3FA92DsdLYG2hRXi9u7dW998843+/vtvzZ8/3y4XqqG62+OyNaF6W2w/3xeVSs6Hjx9//HHbr7QmdLlQPdiQlJTk9wQ/VLT1xVttba29c1o7pPXvtLS0ZvcZ3pzPtV404DtYb2n2PYDaMlRvOAwdOtQ+sNyuC0L17qU9Q/Xq6uqA+7kx9a1jrdZsR48etX+yHRUVZYeSxvwX+ElSUlKSjPmvFVGgG+yamho7pPcd+vTpY/87FG5gA4XqmzdvdhyfJSUlro/b7hqqN+dc2lGh+ssvv+xXH9/tcvbsWUmNh+qSFBsbK2OMwsPDlZOTIyl4qO5bR2P+C9Wl+q5wfI8p32HChAl29zW+XTyUlJQ0uZw9TXuG6m7PldevX1ffvn3t/cL3vOb7AsBQV1tbaz9YbWwYPXq0fY4LdH70Zb0M1pj/fqEH91qyTXxflBYdHe34npGav00CHTunTp1yXOdGR0fb/w4PD9dPP/0kyflQIDw83O7qwZj6l4OVl5dLcgaz1hAVFWX3v+vbLYxvH799+vSxr2NiY2N1+vRpSd3nmiSYrnRf1tr9zfqb1Y2a7zBs2DD7nRltfe/Y3bR1qN6a771A++err77qt329Xq8dtodiqO52HQUK1SV357LODtXd1tNtXXxD+mDn5lAO1SXpq6++sh8K+g7h4eH2iy19vxsDndOs82hT+Y/v+fWpp57ya9xgCbQtrG4sGw7WfVCohupuj8vWhOptsf0ahup1dXX2r/P69u2ru3fvtu1Ka0KXDtVjY2M1ZswYLVmyRPfu3evoqraZtr54k6RHjx7p3Xff1YgRI+T1ejV06FCtXLmyReupOZ/7119/afr06erTp48GDhyoRYsW6aeffvI7gNoqVF+yZInmzJmjp556SomJiZo3b57fQeJmXRCqdy/tGapL9T+Hffvtt5WWliav16vU1FStWbPG8UI/Sfr11181efJkxcfHKy4uTpMnT3a8rVxyF6pb4xcvXqyhQ4eqT58+mjZtmn744Qe7bCjcwAYK1e/fv6/p06fL6/UqISHBbiHl5rjtrqG65P5c2lGh+u3bt5Wbm6vY2FilpKSooKBAp0+ftuszf/58SU2H6gcPHtTAgQMVFRVlv4W9sVD9r7/+slvi+YbqknTlyhXl5uZq8ODBiomJ0bPPPqvCwkJH10qE6o1rz1Bdcn+uvHnzpvLy8jRw4EBFR0crPT1dO3fu9Ovbvzs4fvy4cnJyNGzYMPXq1UsDBw5UXl6ejh8/rmeeeUZer9e+kQ52frT49i9K1y8t15xtItV/n8TFxSkmJsZuDW5p7jYJduycPn1aubm5Sk5OVmRkpPr166dJkyb59c/61VdfKTMzU4mJifJ4PEpOTtacOXN05coVR7lt27ZpyJAhio6O1vjx43XixAm/PtUtu3fvVkZGhqKjo5WUlKS5c+fq8uXLfvUO9WuSYLrafVlr9jfrbx999JHWrl2rlJSUVt0v9VRtHapLLf/eC7R/VldXa+PGjRo9erRiYmKUkZGhkpISO4gKxVBdcreOgoXqUtPnsq4Qqrupp9u6SNL58+f1yiuvKDExUUlJSVq8eLHjAX2oh+pSfcOayZMnKyEhwb6/PnnypP33mpoaFRQUKDExUQkJCZo9e7bKy8vtAHjQoEGSms5/zp8/r/T0dPXq1UvJycnNCtWl+gfaWVlZio2N1dNPP62ioiL73itUQ3XJ3XHZmlC9LbZfw1BdkoqLi+3yHf3rqw4P1QEAAICe5u7du816+PPHH3/YNwh0/dI+2Cboypra3wI1MgAAAB2HUB0AAADoIqqrq3Xr1i27b8sRI0Z0dpV6PLYJOpLb/Y1QHQCAzkWo3g35vgSvqcH3p6gAAADoXL4/oTXGaPfu3Z1dpR6PbYKO5HZ/I1QHAKBzEap3Q48fP9apU6dcDT39xTQAAABdyblz55SRkaHc3FzC2y6CbYKO5HZ/27lzp3bu3Klz5851YO0AAICFUB0AAAAAAAAAAJcI1QEAAAAAAAAAcIlQHQAAAAAAAAAAlwjVAQAAAAAAAABwiVAdAAAAAAAAAACXCNUBAAAAAAAAAHCJUB0AAAAAAAAAAJcI1QEAAAAAAAAAcIlQHQAAAAAAAAAAlwjVAQAAAAAAAABwiVAdAAAAAAAAAACXCNUBAAAAAAAAAHCJUB0AAAAAAAAAAJcI1QEAAAAAAAAAcKnNQvULFy4wMDAwMDAwMDAwMDAwMDAwMDAwMDAwdOuBluoAAAAAAAAAALhEqA4AAAAAAAAAgEuE6gAAAAAAAAAAuESoDgAAAAAAAACAS4TqAAAAAAAAAAC4RKgOAAAAAAAAAIBLhOoAAAAAAAAAALhEqA4AAAAAAAAAgEuE6gAAAAAAAAAAuESoDgAAAAAAAACAS4TqAAAAAAAAAAC4RKgOAAAAAAAAAIBLhOoAAAAAAAAAALhEqA4AAAAAAAAAgEudHqqXlpZq5cqVnV2NDrVy5UqVlpZ2djWAbuHhw4eaM2eOqqqq/P5WVVWld955R8OGDZPX61VqaqrWrVunx48f+5X96aefNH36dPXp00cpKSnatGmTamtrO2IRupXExEQZY/yGJUuWOMoVFxdr/Pjxio2N1YgRI/Tuu++qurq6k2rdvs6fP6/Zs2crJSVFkZGRSkxM1CuvvKKTJ08GLP/kyROtX79eEydOVN++fRUfH6+xY8dq//79qqurkySVlZUFXM8Nh4EDB9rz/fTTTzVq1Ch5vV4lJydrwYIFKi8v9/v8Xbt2KTMzU7GxsRo4cKDy8/N169YtR5nKykotX75cKSkpio6O1pgxY3Tw4EG/eV29elU5OTnq37+/4uLiNGXKFJ09e9b++5w5c1wtx969eyVJ0dHRfn9LSkrSjBkzdPz48eZvnB7A7THpdv8IZPPmzRo5cqRiY2M1efJkxzaGU1FRkcaPH6+YmBilp6eruLjYr0xZWZlmzJih+Ph4paamatWqVaqpqfErd+zYMU2cOFGxsbHKyMjQ/v37A36mm+1TVVWlxYsXa9CgQUpMTFReXp4qKipav8CdjH0TAAAA7aXTQ/XZs2dr5MiRnV2NDnPp0iUZY3TkyJHOrgrQLXzyyScyxqiystLvbzNmzFBYWJhef/11FRUVacGCBTLGKD8/31Hu6NGj8ng8ysrK0ubNm5WXlydjjD788MOOWoxu4eHDhzLGaNq0aSooKHAMR48etcvt2rVLxhhlZ2dr+/btWrFihXr16qUXX3yxE2vfPn799Vd5PB4lJydr9erVKioq0po1a5SSkqLw8HAdOnTIUf7mzZt65plnFBERoenTp2vt2rVavny50tLSZIzR66+/Lqk+1N6yZYtjiIqKUlpammPcnj17JElbt26VMUZTp07V1q1btWrVKsXExGj48OGOh0zvvfeejDGaPHmytm7dquXLl6tXr14aNmyY/eCqrq5OWVlZioyM1FtvvaWtW7dq0qRJMsY4Qr3bt28rISFBiYmJWr9+vT766CMNGTJEXq9XV65ckVQfCvrWd8aMGTLG6O2333aMv3jxoqT6UP2ZZ56xx2/atEmvv/66Bg4cqLCwMG3YsKH9NmYIcntMut0/AnnnnXdkjNHcuXO1ceNGpaWlyev16ty5c+29eCHn3XfflTFG8+bN09atW5WRkaGwsDCVlJTYZW7cuKG4uDgNHjxYH3zwgRYtWqTw8HDl5eU55vXtt98qPDxc48eP16ZNmzRt2jQZY7Rr1y5HOTfbp66uThkZGYqOjtbbb7+tNWvWKD4+XikpKXr06FH7rpR2xL4JAACA9tQpoXpFRYWKi4s1b948GWN6RKheWlqq7du3a+DAgYTqQCs9fvxYP//8s9asWSOv1xswVL9w4YKMMdq4caNjfH5+vqN8bW2tBgwYoOzsbEdLQKsVdaDWgQjsjz/+kDFGP/30U9AyDx48UO/evfXSSy85xn/33XcyxuiXX35p72p2qIyMDCUnJ/vtn48fP9aoUaMUHx/vaKH/8ssvq2/fvvr5558d5Wtra7V06VIZY/T9998H/KzY2FjNmDEj4N/i4+M1bdo0u6W7JO3fv1/GGDtc/ffff+XxePTSSy85fqVx5MgRGWO0fft2SfUPCowx2rp1q6N+zzzzjJ5++ml73AcffCBjjP744w973D///KPIyEgtWrQoYD23bNkiY0zQ0Cs6Olo5OTl+4+/fv6+pU6fKGKPz588HnLYncnNMSu72j0Du3r0rr9fr2J4VFRVKTEzUvHnzWl3/7uTy5csyxmj9+vX2uLt376p3796aNm2aPa6goEBer1dlZWX2uA8++EBhYWGOcc8995xGjhxpP/Soq6tTdna2Bg0aZB+/brfP8ePHZYzRV199ZY+zjvPPPvus7VZCB2LfBAAAQHvrlFC9sLDQ8RPknhCq9+rVy7HMhOpAy506dcqvK4OGoeWBAwdkjNGlS5cc43fv3u0I3o4dOyZjjH788UdHuUuXLmnv3r0BW8AjsEOHDskYo5s3bwYtU1JSImOMvv76a7+/JSUlae7cue1ZxQ5VV1enyMhIvxamll27dmngwIH6+++/Jf0XbPmG1b7u37+vXr16BV1HwUL18vJyGWO0c+dOx/irV686Ps/6/IahfV1dnbxerx1E7d27V8YYv24UFi5cKI/HYwez8+bNU0xMjF99UlNTNXny5IDL0NJQXZKuX7+uiIgI5ebmBvx7T+TmmHS7fwSyY8eOgNtryZIlioyM7DHnz+zsbA0YMEAPHz60x1nH0759+yTVh+VRUVF68OCBY9oTJ044wuz4+Hi/4/jff/9VWFiYCgoKJP330HjLli2Octb2trpCcrt9cnNzFRcX59fl2YgRI/Tcc881e310BeybAAAAaG+d3v3LlClTekSobrHCQEJ1oG1YD+ka3iA/efJElZWVjpaXkvTqq6+qd+/eduvggoICeTweWqS3gcLCQkVERGjFihVKSkpSbGysMjMzHa3PraApUOvXlJSUbvd9kJSUpPj4eFf9+C5evFi9evVqtLuFe/fu6d69ewH/FixUr62tVWVlpV+f9Z9++qmMMTp9+rSk+r7f165d69d/+q1bt2SM0eLFiyVJZ8+elTFGu3fvdpTLyMhQenq6/f9NmzbJGKOrV6/a4+7cuSOv16vly5cHXIbWhOpS/TVF//79g/69p3FzTLrdPwJZvny5vF6v33jroeapU6fabmG6sLKyMkVFRendd9+VVP9LlCFDhjgeHmVkZCgrK6vR+dy/f1/GGH300Ud+fxs6dKimTJkiSfrmm29kjNGZM2ccZawHJIWFhZLcb5/09HRHa3nL66+/rqioKL/v0VDAvgkAAID2RqjewQjVgbYVLFT3dfbsWb3zzjvKzMxU7969dfjwYftv8+fP11NPPaWTJ0/aL2dMTU3V+++/321fnNlerK510tLS9OGHH2rdunUaPHiwwsLC9N1330mq72c7IiLCr7X1yZMnZYxRcnJyZ1S93Rw4cEAREREyxig9PV0rV67Ujz/+GDA4z8rKUmpqaos/q7HuXyx3797VypUrNWvWLHk8Hq1atarJwGzx4sUyxujEiROS6kPYF198UbGxsdqwYYMOHjyo2bNny+PxOPqIv3XrllJSUjRs2DB9+umn2r9/v0aPHq1+/frZfao31NpQfdGiRTLGBHxxcU/k5pj01dz9Y9asWQGP2cYennVXhYWF8ng8unjxotatW+fXhcugQYOUl5en3bt3Kz09XTExMX4v+LXeu2O9C8HX2LFjNWrUKEnSzp07ZYzRX3/95Sjz5MkTGWO0bNkySe63T//+/fXqq6/6lVu5cmWT369dFfsmAAAA2huhegcjVAfalptQ/ciRI0pLS1NMTIwSExN14MAB+2/Tpk1TTEyMoqOj9cYbb2jbtm2aO3eujDGaNWtWRyxCt7F582YtW7bM0b1BZWWlEhMTNWzYMHuc9bK+nJwcFRUV6d1331VsbKz69u2rlJSUzqh6u7p48aIKCgo0evRohYWFyRijyMhIzZo1yxG6JScn6/nnn2/x57gJ1W/cuKH09HQlJCSoV69eWrlyZdBfady5c8d+aW/DPtB//fVX+30G1jB16lTdv3/fEuNAIwAAIABJREFUUc56AabvsHr16qBBbWtD9bVr18oY41ivPZnbY9LSnP1DkiZPnqzhw4f7jf/tt99kjNGXX37ZNgsSAqqrqzVixAilp6crKirKr7W51+tVfHy84uLitHr1am3ZskUTJkxwdL1j9WPuG7RbsrOz7Ydu1vsKKioq/MpFRkZq4cKFktxvH4/HY/8SxZf1/drw1yuhgH0TAAAA7Y1QvYMRqgNty02obnn06JEWLFggY4xKSkok1Yfqxhh9/vnnjrJWCz033Xagcda6tAKguro6bdu2TWlpaYqOjtazzz6rb7/9VuPGjdP48eM7ubbt6969ezpy5Ijy8vIUHh6uvn37qry8XFL9y3F9X/TZXG5CdV+7du3ye3GiZf/+/YqPj5fX69XmzZsdIfgvv/wij8ejmTNn6urVq3rw4IG+//57DRgwQGPGjLF/4bFhwwa7K4pbt27pzp072rlzpzwej5YuXRqwTrRU7xgNj8lAGts/LDNnzmy0NbDVt3dPYb0zIi0tze9hhNfrVVRUlONXGnV1dRo3bpxiY2NVW1trt1QP9HLQ5557TmPHjpUkFRUVyRija9euOcpYLdVXrlwpyf326devX8CXdxYUFMgYoydPnjRvRXQB7JsAAABob4TqHYxQHWhbwUL1hw8f+rWalf7rH9p64dtrr72myMhIv65ezp07J2OMdu3a1X6V7yGscM56OWwwKSkpeuWVVzqoVu2vrKxMX375ZcD9UJIOHjwoY4zWrVsnqf5Fn031qZ6Xl6fk5OSAXRMFC9UfP34c8P0CUv1LQ31fRFhdXa1Zs2bJGKPc3Fxdv37db5rs7GwlJib61eHIkSMyxujQoUOqrq6W1+sN+NLQt956S2FhYbp9+7bf31obqk+dOlWJiYlB/456vsdkc/aPhpYuXRrwZbRffPGFq2O+u7GWu0+fPn77d0pKSsBfolj7/JUrV3T37l0ZY7Rp0ya/csOGDbPPj19//XXAh75Wn+rbtm2T5H77pKWlafr06X7l3njjDcXFxblc+q6FfRMAAADtjVC9gxGqA20rWKg+f/58xcbG+pWvrKy0u6CQpHXr1snj8fi1xCstLZUxxtFVDIKrqqrSwoULVVxc7Pe39957T2FhYaqqqlJtba3279/vFwb99ddfjjCoO7BC5h9++CHg32/fvu14wHPo0KGggZpUv45jY2OVnZ0d8O/BQvW9e/fKGKPff//d72/p6emOXwfMnz9fkZGR+uKLL4IuV3p6ut1i1teFCxdkjFFRUZH9wkWrxayvHTt2yBijS5cu+f2tNaH6zZs35fF4Agb5PZHbY7I5+0dDVovpixcvOsYvW7ZMkZGRjm5nurs7d+4oISFBM2fOVGxsrF/L76ysLE2cONFvOuuFvtYvVvr37++3D9+9e1fh4eFatWqVpP/6Xi8qKnKUO3r0qOOc43b7zJw5U/369fN7sDJq1CiNGzeumWuia2DfBAAAQHsjVO9ghOpA2woWqlsvcmv4E+/PPvvMcQxeu3ZN4eHhdp+2liVLligiIsLvRXAIbvDgwUpNTXW0tH748KGSk5OVlZVlj3v66aeVkpLi6B5h0aJFioyM1J07dzq0zu2poqJC0dHReu655wIul7Xv+u6j2dnZio2N9dtvq6urlZub22hfwMFCdSuAs8J7y+XLl+XxePTWW285yq1du7bR5XrjjTfk9Xr9jo3169fLGKPS0lJJ9S1rn3nmGb8W7ZMnT7a7u2iopaH6w4cPNX36dFqgNuDmmHS7fwRy584dRUZGOqZ9+PChBg4cqNmzZ7fx0nRtCxYsUEJCgu7du2e/S+CXX36x//7555/L4/E49s/q6mqNGjVKgwcPtsetWLFCsbGxjpbu27dv93sQNXr0aI0bN85xHOXk5CgpKcke53b7FBcXyxijY8eO2ePOnz8vY4w++eSTVq6ZzsG+CQAAgPZGqN7BCNWBttVY9y9jx45V7969VVBQoF27dunNN9+Ux+NRVlaWo0Xem2++qfDwcC1cuFBFRUV2eBmolS2CO3jwoDwej8aMGaNt27Zp48aNSk1NldfrdQRJ+/btkzFGL774ooqKijRz5kwZY7R58+ZOrH37OHz4sKKjo9WvXz8tXLhQGzZs0Lp16zRlyhQZY/Tqq686yl+7dk0pKSkKCwvTtGnTtHbtWi1dulTDhw+XMUZ5eXlBP6uxPtWXLl2qsLAwzZ8/X5988onef/999evXTwkJCXZ4t3HjRvulpGvXrvUbrBbP//zzj+Lj49W/f3+9//772rlzp+bOnauwsDBH69xjx47JGKP09HRt3rxZW7du1cSJE4P2GS25C9VHjhyp7du3a/v27dq6dauWLFlir7PCwsKg66cncntMutk/pPoHKiNHjtS9e/fscQUFBQoLC9Pq1at14MABZWZmqnfv3gFbvndXJ06ckDFG+/btkyTV1NTomWee0fDhw+2HSk+ePFF6err69Omj9957T1u3btWzzz6rsLAwff/99/a8/v77byUmJmr06NH6/PPP9cEHHygyMtLvXFFcXKyIiAjNnDlTX331lfLz82WM0e7dux3l3GyfmpoajR8/XgkJCdq+fbs++eQTDRo0SMOHDw/afVUoYN8EAABAeyJU72CE6kDbauxFpQ8ePNDixYs1cuRIeb1ejRgxQu+9917AlxgWFhYqPT1d0dHRGj16tPbs2dMR1e92SkpKNHXqVPXr10+JiYmaMWOGrl696lfu008/VWpqqnr37q2srKxGuxsJdZcuXdL8+fOVnp4ur9erxMRETZgwQZ9//nnAvtGrqqq0cuVKZWRkKDY2Vv3799fEiROb7IqoqReVbty4UePHj1dMTIwGDx6sefPm6ebNm/bfFy5cKGNM0GHhwoV22Rs3bmjevHkaNGiQoqOjlZ6erm3btvm9nPHUqVOaMmWK+vXrp759+yozM7PRFwS6CdUb1uupp57SSy+9xIsHg3B7TDa1f0jSpEmTAr7gdMOGDRo5cqTdPdHp06fbdZm6kkePHmnIkCGaMGGCY/yvv/4qY4w2btxoj7t//77y8/OVkpKiPn366Pnnn9fJkyf95nn58mW99NJLio+PV2pqqgoKCvyOLUn69ttvlZmZqdjYWGVkZNihfkNuts/Dhw/1+uuva9CgQUpMTFReXl6jL7INFT153wQAAED76vRQHQAAAAAAAACAUEGoDgAAAAAAAACAS4TqAAAAAAAAAAC4RKgOAAAAAAAAAIBLhOoAAAAAAAAAALhEqA4AAAAAAAAAgEuE6gAAAAAAAAAAuESoDgAAAAAAAACAS4TqAAAAAAAAAAC4RKgOAAAAAAAAAMD/b+9ev6K2FjaA/1F7YAYGGGCAERDHijrAoCgIWAaKSosXVKQoiqio4AXxzkFEFH2rYKu2ekBtvayqxx49rddirVJvKArICM/7gZWUkAwEEKj6/NbKBzNxJslOws6Tnb11YqhORERERERERERERKQTQ3UiIiIiIiIiIiIiIp0YqhMRERERERERERER6cRQnYiIiIiIiIiIiIhIJ4bqREREREREREREREQ6MVQnIiIiIiIiIiIiItKJoToRERERERERERERkU4M1YmIiIiIiIiIiIiIdHpvofqdO3c4ceLEiRMnTpw4ceLEiRMnTpw4ceLEiROnj3piS3UiIiIiIiIiIiIiIp0YqhMRERERERERERER6cRQnYiIiIiIiIiIiIhIJ4bqREREREREREREREQ6MVQnIiIiIiIiIiIiItKJoToRERERERERERERkU4M1YmIiIiIiIiIiIiIdGKoTkRERERERERERESkE0N1IiIiIiIiIiIiIiKdGKoTEREREREREREREenEUJ2IiIiIiIiIiIiISCeG6kREREREREREREREOjFUJyIiIiIiIiIiIiLSiaE6EREREREREREREZFOYxaq19bWIiUlBRaLBePHj0d+fj6ePn06Vqszom7fvg0hhGqyWCxISEjADz/8oPn/bt26hfz8fDidTvj5+cHhcGDp0qW4fPmy5vLNzc1YvHgxPvvsM/j7+2P69Ok4deqUarkHDx4gKysLVqsV0dHR2LRpE969e6daTk8ZdXZ2Yv369XA6nTCbzZg8eTJ27NiBt2/fetwfpaWluHHjRn+7DG1tbVi8eDHa29tVn7W3t2PDhg2YNGkSzGYzoqOjUV5ervrN9vZ2rFq1ClFRUbDZbMjJycGLFy/6/d3e9O4nyY0bN1BaWqr7+4eyjv3tl0/V+zhWAODixYuYM2cOAgMDYbfbUVFRga6urtHYhI+KzWbTvN4VFhYqlmtsbERSUhIsFgumTp2KjRs3wu12j9Faj6xbt25h0aJFsNvtMJlMsNls+Oqrr3Dt2jXN5Ts7O7F9+3YkJycjKCgIVqsVM2fORH19Pbq7uwH0XJ+09nPfafz48fL3HjlyBHFxcTCbzYiMjEReXh6ePHmi+n091/7W1lasW7cOdrsdfn5+mDZtGk6ePKn6rqamJmRnZyMsLAzBwcFIT0/HzZs35c8XL16sazuOHj0KAPDz81N9Fh4ejqysLPz444+DL5xPgN5zUu/xoaWyshKxsbGwWCxIS0tTlDEp1dTUICkpCf7+/nA6nWhsbFQto7f+cf78eSQnJ8v1yfr6es3f1FM+w60z/dPV1dWhrq5O8zO92z4W5UIjx+12o7KyEpmZmRg3bhxCQkLgcrlQVlaGtra2YX13W1sbhBA4ePDge1pbGi281yIiosEYk1B969atEEIgLS0NVVVVWLduHXx8fDBp0qSP8g+YFKpnZmZi37592LdvHyorK7Fhwwb5Zvf48eOK/1NRUQGTyYSwsDDk5OSgvLwcubm5GD9+PIQQWLt2rSKAevToESIjIxEUFIQNGzagqqoKCQkJEELgm2++kZd7/PgxgoODMWHCBOzYsQMrV66El5cXcnJyFL+vp4zevXuH1NRUGAwG5OXl4cCBA1iwYAGEEMjNzdXcF/fu3YMQAqdPn+53nx06dAhCCLS2tqo+y8rKgsFgwPLly1FTU4O8vDwIIZCfny8v093djYSEBPj5+WH9+vXYsmULrFYr7HY7Ojo6+v3tweyn3hYtWoTY2NgBv3s469jffvlUDfdYAYAzZ87AaDQiNTUVlZWVyMnJgRACO3fuHK3N+ChIN5GZmZkoKSlRTGfOnJGXq62thRACLpcL1dXVKC4uho+PD+bOnTuGaz8yrl69CqPRiMjISGzevBk1NTXYsmUL7HY7vLy8VA8+m5ubERMTA29vb8yZMwdlZWVYt24dHA4HhBBYvnw5gJ5QW/p7Ik2+vr5wOByKef/3f/8HAKiqqoIQAhkZGaiqqsKmTZvg7++PKVOmKB4y6bn2d3d3IzU1FSaTCWvWrEFVVRU+//xzCCEU4dGzZ88QEhICm82G7du3Y+/evZg4cSLMZjN+//13AD3hU+/1zcrKghAC69evV8y/e/cugJ5QPSYmRp5fUVGB5cuXY/z48TAYDNi9e/fIFeYHSO85qff40LJhwwYIIbBkyRLs2bMHDocDZrMZv/7660hv3gdn48aNch1JqqcZDAZcuXJFXkZv/aOhoQFeXl5ISkpCRUUFMjMzIYRAbW2tYjk95TPcOtM/XUdHB6KiorBmzRrVZ3q3fSzKhUbOgwcPMH36dAghMGvWLBQXF6OkpAQulwteXl6w2+24fv36kL+fofqHi/daREQ0GKMeqj9//hxGoxHz5s1TtAI9ffo0hBCorq4e7VUacVKovmvXLtVnz549Q2BgIKZMmSLPk/ZFVlYWXr58qVi+o6MDBQUFEEJg79698vy1a9fCy8sLv/zyizzv3bt3iI+Ph9VqleeVlJTAbDbjwYMH8rwdO3bAYDDI8/SW0ZkzZyCEQEVFhWId16xZAyEEbt++Lc+7ceMGqqur5YcCWqH627dvcfnyZWzZsgVms1mzQnPnzh0IIbBnzx7F/Pz8fMXyP/74I4QQOHHihLzM1atXVQ8ZPNGznwDgxYsXaGxsRG5uLoQQgwrV9a6jnv3yqXmfx0pXVxciIiLgcrkULc6kVtT9vZ1ASr/99huEELh48aLHZd68eYOAgADMmzdPMf/s2bMQQuDnn38e6dUcVQkJCYiMjFQdn2/fvkVcXBysVqviAemXX36JoKAg1RtJXV1dKCoqghAC586d0/wti8WCrKwszc+sVisyMzPllu4AUF9fDyGEHK7qvfZL16mqqirF+sXExGDy5MnyvB07dkAIgd9++02e99dff8FkMmHlypWa67lv3z4IITwGS35+fsjOzlbNf/36NTIyMiCEwK1btzT/76dIzzkJ6Ds+tLx8+RJms1lRni9evIDNZvP4cP1Tdf/+fQghsH37dnney5cvERAQgMzMTHme3vrHjBkzEBsbKz/06O7uhsvlQlRUlHz+6i2f4daZ/qkePHiA48ePIykpCUIIzVBd77aPRbnQyOjq6oLT6YTFYtG8H7ly5QrCw8Nhs9nw+vVrze/o7u7GmzdvPP7G+wrVP/X6/mjhvRYREQ3VqIfqUuW1byjQ3d0Ns9n8UVYm+wvVASAjIwNGoxHv3r1De3s7IiMjMWHChH5bhyUmJsLf319+NXvmzJlISEhQLbd7924IIfDnn38C6Llx7hu6PH/+HAaDASUlJQD0l1FpaSmEEKq3C65fv654XR8AfHx8FK+da1Vipf/Xe+pboTl+/DiEELh3755i/uHDhxVhyvz58xEcHKzqvmPq1KmYMWOG6rf70rOfAGDXrl2K9R1MqK53HfXsl0/N+zxWzp8/DyEELly4oFju3r17OHr06Ce/rwfj1KlTEEKgubnZ4zJXrlyBEEKz26vw8HAsWbJkJFdxVHV3d8NkMnl8w6W2thbjx4+Xr8/Stbd3WN3b69ev4ePj43EfeQrVnzx5onlz39TUpPg9vdf+o0ePQgih6qqgoKAARqNRDmZzc3Ph7++vWp/o6GikpaVpbsNQQ3Wg540tb29vzJ8/X/PzT5Gec1Lv8aHlwIEDmuVVWFgIk8n0yVw/XS4XIiIiFF1GSOfTsWPHAPSEsr6+vqog7tKlS4pAV0/9Q3povG/fPsVyUnlLXSHpLZ/h1pn+qdLT0xX1BK1QXe+2j0W50Miorq6GEAKHDx/2uIx0/hYXFwP4OyRvaGjA3r17ER4eLr+Z1dHRgaKiItjtdoSEhODLL7+UH6L1vq663W5s2bJFfivB4XCgpqZG8bvFxcWIj49HU1MT0tPTMWnSpBHYA9QX77WIiGioRj1Uv3XrFsrKylT9sz59+hRCCKxatWq0V2nEDRSqOxwOBAcHA+i5uRJC4MiRI/1+508//aSoEO7fvx/fffedarmVK1dCCIEXL17g9evXqhbuks8++wzp6ekA9JdRQ0OD5jadOHECQgjN/nWlSstA3b9IYXXfCk1nZydaW1sVrekAYOnSpQgICJBbfDqdTkXLL8ny5cvh6+ur+v+96d1PfaWnpw8qVB/KOnraL5+y4R4rJSUl8kMtGp5du3bB29sbxcXFCA8Ph8ViQUpKiqL1uXSjqtX61W63D+oc+hCEh4fDarXq6it31apV8PHx6be7hVevXuHVq1ean3kK1bu6utDa2qrqs/7IkSMQQshvOOm99t+8eVMzkEhISIDT6ZT/XVFRASEEmpqa5HktLS0wm81Yt26d5jYMJ1QHeq7DYWFhHj//1Og5J/UeH1rWrVsHs9msmi891BxO9wkfkgcPHsDX1xcbN24E0NPqceLEiYqHRwkJCUhNTe33e/TWP/79739DCIH//ve/imWkByRS3Uxv+QynzvSh8PHx0QzV9Wz7WJULjYxZs2YhMjJywHFzEhMTER4eDuDvUH3u3LmIiopCeXm5/LdNehPi66+/xr/+9S8kJyfL3Xv2DtVdLhd8fHywdu1a1NTUIDs7G0L0dHcmKS4uRnR0ND777DMsXrxY0UCJRgfvtYiIaDDGbKDSvlatWgUhBC5dujTWq/LeeQrVnzx5ouhTEegJx/sLFCQtLS2KFhRa7t69C6vVilmzZgH4uz9zqY/d3mbOnIm4uLh+f1NPGb1+/RoJCQnw9/fXDH6GG6r3dvPmTWzYsAEpKSkICAjA999/L38WFhaGpUuXqv6P1Lq+v+8d6n4abKg+lHVkRU9tuMfKsmXLMG7cOFy7dk0enDE6Ohrbtm37aAfOHClS1zoOhwM7d+5EeXk5JkyYAIPBgLNnzwLo6fLK29tb1dr62rVrEEIgMjJyLFZ9xBw/fhze3t4QQsDpdKK0tBQXLlzQDM5TU1MRHR095N/qr/sXycuXL1FaWoqFCxfCaDRi06ZNAwZmfa/9XV1dmDt3LiwWC3bv3o2TJ09i0aJFMBqNij7inz59CrvdjkmTJuHIkSOor69HfHw8QkND5T7V+xpuqC49SP4Yx2cZCj3nZG+DPT4WLlyoec729/DsY7Vr1y4YjUbcvXsX5eXlqq5CoqKikJOTg8OHD8PpdMLf3181wK/e+sfBgwchhMAff/yhWKazsxNC9Iy7A+gvn+HUmT4UnkJ1Pds+VuVCIyM4OHjAv5UAsHr1avkYkEL14OBgxf2N1D1a77cT3G43UlJSFKH6Dz/8ACGE6rq7evVqGAwG+Y214uJiCCFQXl7+PjaVhoD3WkRENBhjHqq3tLTIgwJ66mP1QyeF6p6m6dOny32nr1u3DkIIVV/qWvz9/T0O7NfQ0IDg4GAEBQXJ3V9IfURqtSB3uVwewxy9ZXTnzh04nU4IITRbzQPvN1Q/ffo0HA4H/P39YbPZFIO9Go1GzbcepO/t2xKzt6Hup8GG6kNZR1b01IZ7rGRmZsLf3x9+fn5YsWIF9u/fjyVLlkAIgYULF47GJnw0KisrsXbtWkX3Bq2trbDZbIpXmKXB+rKzs1FTU4ONGzfCYrEgKCgIdrt9LFZ9RN29exclJSWIj4+HwWCAEAImkwkLFy5UhG6RkZGYPXv2kH9HT6j++PFjOJ1OhISEwMfHB6WlpR7f0ujv2n/16lW531FpysjIUPU/Kw2A2XvavHmzx6B2uKF6WVkZhBCK/fop03tOSgZzfABAWlqaYkwYyX/+859+6wIfI7fbjalTp8LpdMLX11fVqtlsNsNqtSI4OBibN2/Gvn37MGvWLEXwprf+IY1X8OLFC9VyJpMJBQUFAPSXz3DqTB8KT6G6nm0fq3Kh909666CoqGjAZaW3rW7evCmH6n3/Fubn5yMwMBCdnZ2K+dK4U9K5nZeXhwkTJqh+Q3rzS+pKRgrVnz9/PtRNpGHivRYREQ3GmIbq9fX1sFqtMJvNqKys/CheL9UiheqZmZnYt2+fPB04cAAXL15UvH4oBRC9B3bT0traCiEEFi9erJj/9OlTZGVlQQiBxMRERbAgtbTRGnRqxowZmDlzpmq+njLq7OyUu9CIiIjATz/95HG932eoLuno6EBeXh6EELhy5QoAIDQ0VLN//pKSEggh0NnZiTdv3uDy5cvyJL0OP5T9BHgO1W/duqX4nUePHulex75Y0VMb7rGSmZkJIQTq6uoUy0qt1PR020H9k/alFDR0d3dj//79cDgc8PPzw/Tp09HQ0IDExEQkJSWN8dqOrFevXuH06dPIycmBl5cXgoKC5LExkpKSFAN9DpaeUL232tpaCKEcOFHS37X/559/htFoxIIFC9DU1IQ3b97g3LlziIiIwLRp0+Q3PKQxPXbt2oWnT5+ipaUFBw8ehNFo9BhosKX66Oh7Tmrp7/iQLFiwoN8Wt1If0p8KacwIh8OhehhhNpvh6+ureEuju7sbiYmJsFgs6Orq0l3/qKmpgRACDx8+VCwjtYguLS0FoL98hlIf+dB4CtX1bPtYlQuNjMDAQF1/K9euXSs/pJVC9T179iiWSU1N1RzT6o8//lCE6lIXMZ4maeyK4uJiza6BaPTwXouIiAZjTEJ1t9uNhQsXQgiB+fPnyyHjx2qgPtV7u3DhgseKe2+XL1+GEAIVFRXyvEuXLsFqtSI0NBRHjx5VBeAvX75U/R/JpEmT8NVXX8n/1ltGjx49QkxMDIxGIzZv3jxgkDHcUL2trU3VEhL4u89fabAoh8OBOXPmqJZbsWKF3H/9jRs3FBVaHx8fAIPbT715CtWl0FaapONAzzr2xYqe2nCPla+//homk0nV1cuvv/4KIQRqa2tHbuU/EVI4Jw0O64ndbvd4fn2IHjx4gO+++07zOASAkydPKl7zLigoGLBP9ZycHERGRmp2TeQpVH/79q3m+AJAz6ChvQfj03Ptd7lcsNlsqnWQXoM/deoU3G43zGaz5qCha9asgcFgwLNnz1SfDTdUz8jIgM1m8/g59eh9Tg7m+OirqKhIczDab7/9Vtc5/7GRtjswMFB1fNvtds03UaRj/vfff9dd/5C6kuj70Ffqu3v//v0A9JfPUOojHxpPobqebR+rcqGRkZSUhKioqAEbc6WkpCAwMBBut1sO1aurqxXLuFwuzVBdqmtKoXpaWhri4uJw48YNzUl6uF5cXAyr1fp+NpSGhPdaREQ0GGMSqi9btgwmkwnffvvtWPz8qBtMqN7W1oZx48bBbrf32zIoOTkZZrNZDjxu374Nf39/zJ49u9+WZ2FhYaqQ4+XLl/Dy8sKmTZvkeXrKqL29HVOnTkVERMSALeslww3Vly1bBovFolpearm/efNmAD2tgEJDQ1UV5ri4OCQmJg64nnr3U2+D7f5lKOvIip7acI+V8vJyGI1G1fkmPXTp3VUMedbe3o6CggI0NjaqPtu6dSsMBgPa29vR1dWF+vp6VeggteqSQoePgRQye3p759mzZ4oHPKdOnfIY3AA9+9hiscDlcml+7ilUP3r0KIQQ+N///qf6zOl0Kt4O0HPtdzqdmm/s3LlzB0II1NTUyK/YSy0zeztw4ACEEHLXZL0NJ1Rvbm6G0WjUDPI/RXrPycEcH31JLXPv3r2rmL927VqYTCZFtzONn3v8AAAILElEQVQfu5aWFoSEhGDBggWwWCyq1s+pqalITk5W/T+piwkpVNNT/5BaTtfU1CiWk7qckK45estnuHWmD4GnUF3vto9FudDIqKyshBDafeRLLl26BCEEVq9eDQAeQ/Xly5cjKChI9ZBZavwkheorVqxARESE6jhrbm5GfX29fO/GUH3s8V6LiIgGY9RDdanCWVZWNto/PWYGE6oDf7dezM7OVv1Bf/v2LQoLCyGEUIwIv2jRIgQEBHhsESkpLi6GxWJRtKCqrq5WBBx6y+jQoUMQQuDy5cu6tgsYfqguDQLV99XYb775RvG9jY2NEELg/Pnz8jK3bt2CEAKHDh0acD317Ke+BhuqD2UdWdFTG+6x8vDhQ3h5eck3PpLCwkJ4e3urBhwjzyZMmIDo6GhFS+u2tjZERkYiNTVVnjd58mTY7XZF9wgrV66EyWRCS0vLqK7zSHrx4gX8/PwwY8YMze2Sjt3ex6jL5YLFYlEdt263G/Pnz4cQnvvb9RSqS9d0KbyX3L9/H0ajUQ6a9F77V6xYAbPZrDo3tm/fDiEEbty4AaCnBWdMTIwqbEhLS5O7u+hrqKF6W1sb5syZw1aefeg5J/UeH1paWlpgMpkU/7etrQ3jx4/HokWL3vPW/LPl5eUhJCQEr169krvyk7qVA4C6ujoYjUbF8el2uxEXF6foa1lv/SM+Ph6JiYmK8yg7Oxvh4eHyPL3lM9w604fAU6iud9vHolxoZLjdbjgcDgQGBmo+dLx27RoiIyMxefJk+Q1cT6G69MCk9/zu7m7MnTtXEaqfPXtW803kjIwMmM1m+XcYqo893msREdFgjHqovmfPHgjRM9BLWVmZatKq3HzoBhuqA8DOnTthNBphs9mQm5uLXbt2IT8/H3a7HUIIFBYWKpY3m82YPHmy5j4tKytDW1sbAODPP/+EzWZDfHw86urqsGPHDphMJixdulT+Lr1l9MUXX8BsNmPr1q2ay92+fVu1Xe+j+5eZM2ciICAAJSUlqK2txerVq2E0GpGamiq3AHn37h2SkpIQEhKC6upqHDp0CFFRUZgyZcqADx707qe+BhuqD2UdWdFTG+6xAgCrV6+Gl5cXCgoKUFNTI4eXWq1sybOTJ0/CaDRi2rRp2L9/P/bs2YPo6GiYzWZFkHTs2DEIITB37lzU1NRgwYIFEEKgsrJyDNd+ZHz//ffw8/NDaGgoCgoKsHv3bpSXlyM9PR1CCNU15eHDh7Db7TAYDMjMzERZWRmKioowZcoUCCGQk5Pj8bf661O9qKgIBoMBy5Ytw6FDh7Bt2zaEhoYiJCREDon0Xvv/+usvWK1WhIWFYdu2bTh48CCWLFkCg8GgaJ17/vx5CCHgdDpRWVmJqqoqJCcn99vFmZ5QPTY2FtXV1aiurkZVVRUKCwvlfTaYv7OfAr3npJ7jA+h5oBIbG4tXr17J80pKSmAwGLB582YcP34cKSkpCAgI0Gz5/rGSWrUeO3YMQM/f95iYGEyZMkV+qNTZ2Qmn04nAwEBs3boVVVVVmD59OgwGA86dOyd/l976R2NjI7y9vbFgwQKcOHEC+fn5EELg8OHDiuX0lM9w60wfAk+hut5tH4tyoZFz//59OJ1OCCGQmpqKkpISbNmyBZmZmfD29obNZlPcx3gK1YGe7mQMBgNWrFiB6upquFwuREVFwWKxKBpspKWlwdvbGytXrsThw4flgcB7/91iqD72eK9FRESDMeqhekFBgaJ/6b5TQUHBaK/SiBtKqA709Omcl5cHp9MJs9mMiRMnIisrSx5gUSL129ff9PTpU3n5+/fvY968ebBarYiOjkZJSYmixajeMoqOju53Oa3WlO9joNI3b95g1apViI2NhdlsxtSpU7F161ZVf+5tbW1Yvnw5oqKiYLPZkJOT02/XOH0NtJ/6GmyoPpR1ZEVP7X0cK9L3OJ1O+Pn5IT4+vt/XgsmzK1euICMjA6GhobDZbMjKykJTU5NquSNHjiA6OhoBAQFITU39qLsDu3fvHpYtWyZfy202G2bNmoW6ujrNvtHb29tRWlqKhIQEWCwWhIWFITk5ecCuiAYaqHTPnj1ISkqCv78/JkyYgNzcXDQ3N8ufD+bv8+PHj5Gbm4uoqCj4+fnB6XRi//79qmvk9evXkZ6ejtDQUAQFBSElJaXfQfj0hOp912vcuHGYN28eB/fzQO85OdDxAQCff/45hFAPcLp7927ExsbK3RP98ssvI7pN/yQdHR2YOHEiZs2apZh/9epVCKEc2PD169dyA4nAwEDMnj0b165dU32n3vpHQ0MDUlJSYLFYkJCQIIf6fekpn+HWmf7pPIXqgP5tH4tyoZHjdrtRUVGBL774AjabDYGBgZgxY4aiMZKkv1C9vb1dfrgbHByMefPm4fHjxwgPD1eE6m63GyUlJZgyZQrMZjMcDofqYQtD9bHHey0iIhqMMelTnYiIiIiIiIiIiIjoQ8RQnYiIiIiIiIiIiIhIJ4bqREREREREREREREQ6MVQnIiIiIiIiIiIiItKJoToRERERERERERERkU4M1YmIiIiIiIiIiIiIdGKoTkRERERERERERESkE0N1IiIiIiIiIiIiIiKdGKoTEREREREREREREenEUJ2IiIiIiIiIiIiISCeG6kREREREREREREREOjFUJyIiIiIiIiIiIiLSiaE6EREREREREREREZFODNWJiIiIiIiIiIiIiHRiqE5EREREREREREREpBNDdSIiIiIiIiIiIiIinRiqExERERERERERERHpxFCdiIiIiIiIiIiIiEin/wdSPmSj53yBawAAAABJRU5ErkJggg==;strokeColor=#CC0000;" parent="1" vertex="1">
                    <mxGeometry width="1137.52" height="160" as="geometry"/>
                </mxCell>
                <mxCell id="4" value="" style="shape=stencil(lVbLctswDPwaXTEgwOc5Tf8jM3FqT1074zht8/eBqqFsUtJOepPlXRFYLAEM+vC2f3rdDcJv18v55+7P4fm6H/TbIHI47XeXw9WeBn0c9OHlfNn9uJzfT8/T79enETk+/Tr/Hr/wd+I5ZmIeacIf06tM0f178X0iHA+nO0JJpK7BSyQNgKAUUkPwSpq3CTlS0IYQPUUBBEecG0JKlMo2IQSK7QklUtZtgk+UQ0vIlIBKmknbpEuBIZnqbkEoQFZnJ2hPcEDWQjm2+EQhghQodvhAAgLiWtQZLxSARIZvv58LNJ7Wf2d8rBlt5JtaQbOngAUVaQlCBdjOSsahJzgPTSELggBTmO1SR9Cq2paxQ0ewogFjR66+nwkJGjsqsW/LzBRA0tFR6Xyk5IGsIVEs/eVklDRT7K6OXSZA8G5h7VJbznrhHIXW23dtc90bxuDFEUAmJ+SXSYDrHMgvWhgDvCMnizIAkRZjYaxzAhnXaO+NBBJOffyjU0E8qZrmi3iZbTkPBev6QCAbY6ltMDfrrrvChkJL8AI7jGeStsZWxYLuv/XIfjYL0NSM3c2EWHvaOt4Tt6L6+oF1/Hz8nACUNCilNh4HVwXrRt0QZPIIn0i4w6NbmSy90uOBnrZYqO/wAW0u1rp8ly8asTYhi3Z6opk/bintJfO1k63jSx0vNz+g+P97GfwCwR5uu+fL4XicVtf7//td1V5Ne64+fgI=);lineShape=1;" parent="1" vertex="1">
                    <mxGeometry x="645.2524625356666" y="33.389406282742584" width="6.767581602116252" height="23.854395791860043" as="geometry"/>
                </mxCell>
                <mxCell id="5" value="" style="shape=stencil(jVbLctswDPwaXXdAgg/wnCb/kZk4taaunXGc19+XrEaKQUVIbpSIJYndBciBb57390+7wdPz5Xz6s3sbHy77gX8N3o/H/e48Xupo4NuBbx5P593v8+nl+DB9P923yDb6e3ptK7xPuORAoaE8fUx/CET/f9xN8YfxeBWfGZFUvEco2/ESkKKKL8huO74wmPX6BDE2KIKkARwgaRvgaMlwRkSCy8YWGV4UIEV4KwlCzgqQBcFgVRycZkkEbBwpFQSvaQ0gAxATxPWAYhwprIWrWck2oNLuNa3i4Xgb4BNi0rQWiLFDtVrUUsc4K/NDAH+zw+pIvu5guK8lrWl1PBfUJq16h2A6o+mmUyAz5WYMHV+t5W3ndSJAjPhPEyzrJ2SrPvNM4EJpQTEAX9RniCDDSOsWkGjuIj9sMjmAjYJuXUx3SYkIhgy1TQaddfFIRtatD3cFHeEsoVeN+xtAdHOTWwAFZBwpUG+9K2m+rgZC0spV9cXoStWctKJJDCFcnY69EFaTSWBt71wL2jiRm725WIkhRsrru8SBDRWovz5ZkKNBKYIWrWaUrHpG7jSLyEZ8nS7d3YZkKRbmat96L9TB52PjcTwcprfK9Xz/OKm/pocN3/4D);lineShape=1;" parent="1" vertex="1">
                    <mxGeometry x="647.0218909110474" y="43.81934796568669" width="5.07581510435034" height="4.161936935737572" as="geometry"/>
                </mxCell>
                <mxCell id="6" value="" style="shape=stencil(lVfLbttADPwaXYldcp/nNP2PAHFqo24cOE4ff18KwiombU3RmyxzdpfkDGc1ycP7/ultN3F4v5xP33e/Ds+X/SRfJubD6353Plz0aZLHSR5eTufdt/Pp4/V5+f32NEfOTz9OP+cVfi+4SinMIA5/lhcxU1zefF3ij4fXq/goJN0AJFIqANAoZwNIiXLbBnCmZAElUI/bAGHKYgBVjwQAiSm4HRpFAYBGxSZdmCpvA3KhGA0gZ2JwpCLUmq1SoQD6oCl2m4NkEpBD05pUA2CmAnLoQj1ZalCtIF6JwyY+kICUe/HUC6Mt9+MrleTiewfxbbRorRBev1O2PdMOoPN3Xx9dAAhhji+2nqol1ABdz3YsFigEzbjZDGIfLNkqabVHUk5E3DMnNS1qBGJWUnD2gJAAIHltzrRDR9L1ik8alpVJmi9rxIBg1R8ZjjwFsGV2wymwZ6pWDSlNKNsD6XmQEtLY/lM5BSu5VxePZpHSiL0yM6Jd8x3gwZItIbAbjkN6W/EtufoLiI9hze+qwwFVqFO1LFXbrFj80e3QKSDSqSPZHFQHGYv/DgB0rSVqzpiVRsBBavZOniv02VJJnM92KmCHrI22xG5hXAbuAyKJFX/THZD1y/CwdWgXEtBpWf9eGxewGmYbcL7Qxpv79OujimsSOvLAUFVyVncd0esDYF/18yIHOCL1qmAzkEQJHChQdfHYRsKNKejIBiW9kadaM4OKhmHc16YDBmTw82VeAa5fnYNUOLBXIa7xeICxv2PrTSEikt5c4nV8gX6lYV9rfBwdvC8z7/q6fgSy1FsC+/MzqP//foT8O14fPr94Xg7H4/LBdP2//0LSV8vXlTz+BQ==);lineShape=1;" parent="1" vertex="1">
                    <mxGeometry x="635.9235524226467" y="42.632963802435825" width="46.985842940345265" height="16.001348609839965" as="geometry"/>
                </mxCell>
                <mxCell id="7" value="" style="shape=stencil(lVfLctswDPwaXXf4JnFO0//ITJxaU9fOOO7r7wtVI8VEpO30JlNYEQsCu/QQH96OT6+HIbi32/Xy9fBzfL4dh/hpCGE8Hw/X8aZPQ3wc4sPL5Xr4cr18Pz/Pv1+fpsjp6dvlx/SFXzPOOwfnJlhwv+eliix/Fz7PgNN4vgOIwJUu3gtaIoCK1G8QGloggISYOkCsEL8PaALJHSBVBEcACaHfIRdEklItcKEDlHVlE6CvUw+oCUKqlPNS9QXQAjIBpIQUe4DAx31AcMh9StIgZR/gtSa+B+hJM4BfGuEOIKysyM3GMwpxyXeNX7+wnRCiic9IpJF0FGofH9Aqiw+mQLpC+HrU/vutohK+ydanZRSST7N8p0bPJJ+A2o9miyiMQIUvFsCGXymHbFMSMpoTZ1OjgkLOOBRUs4MsirYN+Nh1HoV0he5g5EVW/djjYAGF76CNYVJqSKyxtW9MZwsKO+mI2KvFnfDv9JLlIEjEF7K1BaXgSa8GOLE18uT7zpqCRFRyCB9sTU/ZE77r27WN2qKXO1pk1FT7NJD8q3UQHYRC8td4/z/xegBmcGpdVvYMxJigmlZkFqWG1PdQbnSWs/Zkf8bZ0Vkusrjw6vyJ6pGaqtlBLyORpFQzgqkSHJkbja/mpsC/X5aKrAyoYtdmCQSq2M1BDGF4UqBJz3tlcYtHbMerUDkTT1VCrJiuHrp9twtI2cRnwlcN2yXDNxHHlPXi917PQviqSLU+PsGzfMS6TUYj+WxerwuToX/fx/Xh/Tb/Mp5O85+B+/f29q9L8z+H+PgH);lineShape=1;strokeColor=#CC0000;" parent="1" vertex="1">
                    <mxGeometry x="642.9133604024446" y="28.477823034172502" width="17.21485351610704" height="28.980872580801474" as="geometry"/>
                </mxCell>
                <mxCell id="8" value="" style="shape=stencil(rVfbbtswDP0avxKSqAv13HX/UaDpYixLijTd5e9Hz5Nr0c4BBuzNFx1SPCSPqIEf3o5Pr4chuLfb9fL18GN8vh0H/jSEMJ6Ph+t406eBHwd+eLlcD1+ul/fz8/z++jStnJ6+Xb5PFn7OuJDIhwkV3K/5i09U4p8vn2fAaTyvAY44dwB2VOt9gC8UfQeITEkAgKlwB8ieuABAJe49lEAlgRiEkusBiQTEEB2F2APUBACkSKGnVRz0UCJVAwjN5y6gJkoGwOSAh5qpZgv4a2IfIDZoibA0at0AMmWGAEk9QKii0nCOXJ+56ill6CJLD4jkgAuN2iRCiQuI10JitlSogupTe7GnafLpACA2UhZAJYcytzTYygMjQCAWG7SgGLztIN1kQbR6ciZo9YlqQwGmNiquPt1SLxtSiBGtwQqTJAooaG7VvOog8bBH3QbgUdBaGtUCAqJVi2/TozAGabW5Crrips5mS0IedNxej7pm464M9DQp0wE3degzp0xnlGqVsk2PRnCkTGJpPAhlBEjN3rpH/ydATwirMxXqd+LWLytABQCu5PstrXK5f5Au0riiSYALHzfal+AwoH9NjwoUpk3tFRUyVK2W1BRaMe6uz60dl+knNWHbTzNJT6nuEO1fCTIqtjCwvz5Z5eamavvrVWH69R6qqk5vpV/v8PCmNVTNelhBKg3JrkfjZ7DHgqOC7HM7ZT7irSC/QQvUGT5R32t6jBQleCTo79LbFzjmTeb6eL1rJXsPYAjVeZrRMLx7A/hnQBeDPnxcOF7G02m+r6z/2wuKfpovN/z4Gw==);lineShape=1;strokeColor=#CC0000;" parent="1" vertex="1">
                    <mxGeometry x="635.0233261087758" y="41.29034612497628" width="35.193289101000346" height="19.85086390141055" as="geometry"/>
                </mxCell>
                <mxCell id="9" value="" style="shape=stencil(lVbLctswDPwaXTEkwRfOafofmYlTa+raGcdtk78vVJWyQUvbyU2Wd0mAuwtx4Ie3/dPrbgju7XI+fd/9Hp8v+4G/DCGMx/3uPF70aeDHgR9eTufdt/Pp5/F5/v36NCGnpx+nX9MK7zPPk5eJFNzH/KJWKv7vm68z/jAeb/AhUqiGkAMl3ibEQrEYAkdyYZtQmFwyhGXLdXyiaPGBuAB8JbF4RxK38ZX7I3LkEb5Q4Q7/r6FVvARytcNn0K8kqs7gPQnoVypFWz9TQesLVVtPIgF6TXhvLUQ+w3q4q99BgbXh1BH0yIAC4puFFwLDHVQyDj2hAs1qoCI9IQs0Xb7roYLYqKs713lPDEoqgcTuIBRBkIu6xm5QKCC8xryPpaBYRkpWBC0Q2KKU5vqrrVG/VUW2mjlicKA1t/ZuYumAiVxfj6OI8JFy7uqPyNV3Y0LnDKhfY5b6WHqwvndLf1eBI8pxbfpcDZRRw5/EqyGKrYeFAohx0pBZx2UdHcBC7FsGl4oi9JxWXKIlZMpgluoROmsiPQWPPpfc1lsIgmUTEt8TKpDNp/5zdqP8OiPcNSFNmvXotGDdNC0gmqkZecGXNi7XD6l3tqoQgAqOaqdabF+IDXwXBFl23MB7O1mmWQBE/uwd6v94fbhe2F7Gw2G+793+31/w9NV8OeTHPw==);lineShape=1;strokeColor=#CC0000;" parent="1" vertex="1">
                    <mxGeometry x="614.7558285131872" y="-9.566127699476965" width="10.00132700560198" height="20.216425288483947" as="geometry"/>
                </mxCell>
                <mxCell id="10" value="" style="shape=stencil(lVbLctswDPwaXTEkQILkOUn/IzNxak0cO+O4r78vVJWKAUtoc5NpLgnsLpcc6O59//i2GzC8X86nl92P8emyH+h+QByP+915vMjXQA8D3T2fzruv59O349P8++1xmjl9vZ6+Tyv8nHGJIfKEwvBrHokBKP8Z+TIDDuPxCpAzcFIAbFDSNqAkCE0BZIkYtwEtQ9I7FAE4JbUGgTRASmrbgBgChKAQNUF1EK0CZg1o0IIDIGia15aAcBtQC+SqAQW4OLxKjwbQgJ2SSgQqFtCckpgAtRBCw98i173BN4AMhRxAtN5o0W061W7ORQeG6vQgANQsVdnBUTqHzsliJn8HcbNRuiAUx9+M3TkdwA2qL5xxKwsNTg9ijRQtgB0dxHxoegiQfXsXwxK5R06cE3VJRUYcpSdvGuHoX4CoU6Au2m/lDGsvNVHGyZmPI78AGIrDUkVIxt5LkVtZGXXTV1G1bqYMle0W6LgvV0g3TVTvjCJkswO5TawDnBsCC1QtBBc3NpoVjmS+I1zo2b6wKs5w1r+5HaLcDg6nAZJRbYna9YYBdT21x+A6oUA6VXN3yQY7SbOD/mUo95KpHoKzfGzdLn1+cO0g1eZg5nuOJtmezXzvkBHbMyP0OvNTsPZMbpgm6qGwJJebQ59+Uf0HQD4+HnDP4+Ewv/+u/7cPPhmaH4v08Bs=);lineShape=1;strokeColor=#CC0000;" parent="1" vertex="1">
                    <mxGeometry x="611.924503886926" y="6.930477384550159" width="8.823439408868808" height="14.482822160325668" as="geometry"/>
                </mxCell>
                <mxCell id="11" value="" style="shape=stencil(lVbLctswDPwaXTEACZLgOU3/IzNxak1dO+O4r78vVFWqgUrI9CbLuyKwWAAc8sPb8en1MCR8u10vnw/fx+fbccgfhpTG8/FwHW/6NOTHIT+8XK6HT9fL1/Pz/Pv1aUJOT18u36Yv/Jh5GXKfSAl/zi+aQCm/33yc8afxfIdPFUo2hFIg531C7sDVEJiA2z6hZChkCHpml32CJKBiCZA5wBdgNnhcctrGd0BxeMR9fE9Qm8MLBfgCwi5+CfLtAsl+v4T69A7V1riDRPF36LZilKEHAikBbQLUoAcV6A3QVUw9EUnEQDZlNW6YM0JLlqA2jUykIVVP+GPcbYLa1IXEkIIcBKGST7oFjTB1IlpZJcyhNWArKzFwCgnFOpsQUnSCgNikK3BgJSEga728vNjGq4QWj9AjfAMpDo+RU8lLimH86jtxrlhssmfs4obdEuBe52TbOQIc6E+4jp61Yimc13oCuxJXqBFBJXWdg+E41fGVnK8zpOiETUJwQm3QnKr6iaAMukLYLSkdUUGrMS4Rr2uQliG+XQjtTVu4rosxcKqqzjbpHjfzNHNt0lrKEqhE5L1055bt7oGG/oQW1cE3s6YQDTDNwIqq3qKgbLrHbdW0/aIhv67VFZ9CSVUNG79udg5q9k+vSX0HX2y+044I8iWvv64ICfD/e1d7H68Pfy+GL+PpNN8r7//3F0l9NV9C8+Mv);lineShape=1;strokeColor=#CC0000;" parent="1" vertex="1">
                    <mxGeometry x="610.5053604059863" y="14.809447201671674" width="17.284663808004325" height="15.29121668303651" as="geometry"/>
                </mxCell>
                <mxCell id="12" value="" style="shape=stencil(lVbLbhsxDPyavRISqQd5TtP/CBCnNurageO+/r7cLtaNaHvQ3GRZs+IMh6QmeXjbPr1uJk5v59Px6+bn7vm8neTTxLw7bDen3dlXkzxO8vByPG2+nI7fD8/L79en+eS8+nb8MX/h14KrhbTOKE6/l52cSPrfnc8LYL87vAO0RNYGACspAHQmSwOgGJV2H2Cdeh8AmqnwfUBOidJ4hVZqICYzSnkAWFp3bgNcJhsBQmb3AaqUAqBTViCTkYSQjBjI1FxFDZm76HATUY3a1RUiAJCo10hCQCaKkMoIKJC1GNUWE8EFAJRk1NVTbYB0SVRGDu6mBm4olerIoXdSwKEKpTERvVICsjZeRbwAhAR5g4k1AjIg7RQt3FCgrLPqgXSjVgGgkZRR1gRDsivzqYcEvOSAHopaqYKS85BqKDmmDvLgpNuokn+CAUCZyhiSKXXQNjxxelVxBgBujVhABm9w8wW3ekgZcHB769hdrcIm4AXUQhPIayo/AED92ytuBNRKBbi1UR69J15RwHspns9CHdTb1TjxmYhGXF7n2cWpsP4LlTFlFY43t1hgSwzI5nLFlio472xDN/KOCdLr6ls8j6aOuENLOM+gjH0kKIf4GYjvhpaxOTJMlr8+wnukwtHvFZZDL11n1u3zH31R/QfAF/8ecC+7/X55/73/Pz74fGt5LMrjHw==);lineShape=1;strokeColor=#CC0000;" parent="1" vertex="1">
                    <mxGeometry x="619.9096544675215" y="8.49966954999718" width="7.602208284077051" height="17.396045561890105" as="geometry"/>
                </mxCell>
                <mxCell id="13" value="" style="shape=stencil(lVfLctswDPwaXTEkCL7OafofmYlTe+raGcdtk78vVA1VE7Q205ssYwUugAXAKTy87Z9edxO7t+vl/H33+/B83U/hy8R8OO13l8NVn6bwOIWHl/Nl9+1y/nl6Xn6/Ps2W89OP86/5C+8LLlMJM4jdx/LCUXJ/X3xdzI+H0405MxXX2XvyYds+JArWnvO2fRRy2Zwn8rZ9CuP5uWzbFzd+3wG+lSn39pEkbdt7t36vAVhDIMCDUO0B0ZOAEJVIqaecPVVwphyIew+lQg9SLaBWyiDLksiXHqB1FQEgUPY9QCgiD0yOe4AjD8IqnkIP0Lh5UEkKSLEHaCo95GAynSPMtETi/kiauFgBoJDrw5oqeaSeVVwroLQwbMlN8uAB5CHmRvGWA/JQKRYbJQZRSo5qn4dcm0LuAzTTfS1pppGm1YMRkNaSQ6QL1T5KWq0COMRE0ZR3pgzaUgwUR8UBDtHZTN90nvvFlJteVheFEipX5dgnokZIQjUqpgt4SEIlJ/2RSmrtfBNgRK2qRQpiyyGrByRqJW1Eza1VbYXVDQpCHjRzvlqNClJQIAkWkHAxmSh9BtBmbfpMhl0gpfb3OrN0ooA8ZKHc50EDXRBA20YP0DEKu8CwCOikrmAEjZuGAlCmx1WGBc7dcVdSDx5wGHYxXkf9fQpUxdqj5Ura8LghwGjZa6vgar8q/P7yY2fDvIyBynZtlVp7WG5Z37A3A9cLJfh9a+/hcjucR2UDwjnQTbABD9HUHQi13yFZeEbZqenwTvh/a/+n5vrw74bxcjgelwvK7f/2RqKvlttMePwD);lineShape=1;strokeColor=#CC0000;" parent="1" vertex="1">
                    <mxGeometry x="627.881106254345" y="8.364008799037038" width="27.049249574598207" height="17.05051670373996" as="geometry"/>
                </mxCell>
                <mxCell id="14" value="" style="shape=stencil(lVbZUsMwDPyavGpky+czx38wQ6EZSsuUcv09ChmX2m4X8uYkWkfHrqRBrl7Xdy+rwfLrYb97Wn2M94f1INeDteN2vdqPBz0NcjPI1cNuv3rc79629/Pzy91kOZ2ed+/TDZ8zLpPECWT5a34hmSL/vLmd7Tfj9sReDPka4AxFdxnghFJo/+DDZUBwFHINsJTkMiAZEqkAxpHxACAUTAUI5BOw18/ND4qL5+01hXUETAxymoU4LLg/e8ppgf85kfVLEpQzBVcBrKYMlMDwMcJj0RyOOZOtc+TUJxR0LDEWgBcywCfNUpNVnymhPxjKtUtBKCIepZapyl2xAODJ11kKKicEsBSbGDwFIJ7ELcBFEgCIytVaCxLJxSUAG4mRPDuXTCQDOkYfdML677Jqiz7+WTbGzOt4cYzon8TTjgaKPDG7vt9oR0N67rSjHiHenZMnkzdLOoBjLJ6ux3iGxDsPAGqL2vVqQIoUAMB3bTI7yoBI2oGkLlwOxCCvOgwTdwAUdOmix0ozHg0q3roMU+2BR55Mah1C01nINhFbOHpMK36tgQAecTtptRtk4D+XVlLso0DadbwOAWqNS7s9mQkeDbayqpwMHQac06/NdqTiBvau5bSuSwLqpa22mZqaYdCtl653f9vr4XeXfBg3m3kVPf3e7p76at5b5eYb);lineShape=1;strokeColor=#CC0000;" parent="1" vertex="1">
                    <mxGeometry x="628.7169398136191" y="14.547111038470803" width="21.92204265389705" height="6.947820121019049" as="geometry"/>
                </mxCell>
                <mxCell id="15" value="" style="shape=stencil(nVfLctswDPwaXTEkQYLkOU3/IzNxak9dO+M4ffx9oSq0RUjaTnujKSzx2AVID/zwtn963Q3BvV0v56+7H4fn637gT0MIh9N+dzlcdTXw48APL+fL7svl/H56nn6/Po2W4+rb+ft4ws8JFx0lGVHB/Zp2mFz6s/F5sj8eTjP7JFRjZ++FuGwDJFN2HSAowG0DslDKfUSZHG8DSiTuQ4qFEgBUZwHiKAYAiJT7kDITCwBk4tQBiiZdtwHeOXJ9maqQQy4q+dIDMgXgQs+Lfda1UARE1ECuz1p9BkC15vhR9hmgIOZcC+Ampnsd1sWhXAfr4oObdfkVqouYPKirKNfVlilEAAjEbInwIAfxVEwOiQrKgVvD3ACRBAGExHjgtrNeVr/QRqACks6qtWQB0QOqmSJbAJobpdoWUkAGIWlNuNikI+qgsmi5SBGU9a7mGXEChqUCxHSQUEE9mimZpAscxyOvJulKDjBdSktxBhAQUgkrgAoAWRZqrTDp7Ei8BaDBpPK2xOnAR3dQsJfWWGjconlBHBp9/wOQXks6PTNQa8qWab2DEA/J27mkPgOQd4w2pFihvFlsi3JpPlcBoZDvqxQyFVAlX20/ePUAcnBNy80+NY8b5kZIsV2qG+apFyqTBwyE9vWWLQXAcFy8rNrIXG9Mkj52RxmQ5bUHxNgjNfhsFe3gYAm36TyzBy2mzKdq4wHns75G7PnoDuRkb1ntB3BBqXRzb6/0gXj+9eH8d3td3F/pL4fjcXrkz7/bV71uTf8I+PE3);lineShape=1;strokeColor=#CC0000;" parent="1" vertex="1">
                    <mxGeometry x="636.384537117096" y="0.19279372411983786" width="7.83231040043529" height="39.129085603544354" as="geometry"/>
                </mxCell>
                <mxCell id="16" value="" style="shape=stencil(lVbLcsIwDPyaXDW25eeZtv/BDKFkSgkT6OvvKzfQYrtsyy0EbazVriR3vDhslvu+M+pwnMan/m1YHTcd33XGDLtNPw1Heer4vuPFepz6x2l82a3m3/tljsxPz+Nr/sL7jAuWYsoooz7mNylR5K83DzNgO+wuAMYR2wKglSKlriN0IFMiUiCO1wGJUizio6QEDrB1RiGS8tfjVU3ZM3FA8Sd653grjBIgTCEU8azJgnhff18q5oEE2pDxJWHSgK9ONWFNGvA1Ur4yXkG+3BCw5A3Qy5zl/M6HKSCBQ11RqZkDGTlFXDKwmhJIqQW4SPqPlCoNmCwQTUiH8oToiTWoqqNUdaaDbZNlK/tGWjmAE7IvKkCEvZ+N50qASGlvcHY0xMipdVF9JAdUaDrTGfLAF03ni3U9qFAzWSTDBAqUasm0Io0mRagLamA+efiW8Xj0tsMax7fbQMFJERWlahnAzhfL+zJ/d7bg7/WUz5WGEAuiSSEtcnL8hWLIEeJ4VzJgsSjqAdWuA4v3X4tw0hhA5jYpLxsB6NDSlhWIhktb2Cg7GZDIylVL3JIGdWqtIazQ+Lr5JvIPgDz8XHzWw3Y735su/68vSvJqvmTx/Sc=);lineShape=1;strokeColor=#CC0000;" parent="1" vertex="1">
                    <mxGeometry x="663.6378301228594" y="7.115092852952785" width="7.427037154973732" height="3.769814294094431" as="geometry"/>
                </mxCell>
                <mxCell id="17" value="" style="shape=stencil(lVbZctswDPwavWIIgudzmv5HZuLUmrp2xnF6/H3BaqQaYrSx32R6cRDALjjIw9v+6XU3ePd2OZ++736Nz5f9IF8G78fjfnceL/o1yOMgDy+n8+7b+fR+fJ5+vz41ZPv6cfrZPPye7DhSqM3Kuz/TSSTO/w6+TvjDeLzCi6eSDV6oyjY+Rsre4Jm4bOOLp2TxjpwD+DK7m/GLgw/xVYijzceRBwFqJic2AFMNwKCS2IpKogRKxG654tIDT5lBiELZhkiFIjKIVGyVtM4C2lyZoo1QtfHg1iWRJGtQqIBbF0fZ1lULhy6dIwlbAz0Bo5QdJdvqliRodcrkgzHIQgGklJQ81iAWciCl3iDoMN2Vkk8UQeP6S7NQqveUNUACtb7ZjJQ/wH8/GAwFRicvWTJk4oRH204qZ0qInx15RIcd9OADfoY8F+1GCUgyn2yKjFW9rIOEqtTJWKlUQEpNJ61ua0yUUhNiOxdXdbhRuj+z6JdDEw0wfP32qQnWqV9vNUBZYqa80jGhiHRsTVBtBOKbrtcVXv3Hbbxf81kJGwAf3Kwny+gtBNnAr3eP+gc967kQ5lVxWz4SiIH/7r6qR6j+XT05zRp7W790/6Ol0A+E+r9r4vCD6nO8fvx/vb2Mh8P0+Lv+f/3a06PppSiPfwE=);lineShape=1;strokeColor=#CC0000;" parent="1" vertex="1">
                    <mxGeometry x="672.6976024789349" y="2.6378578234682664" width="13.569978573428898" height="4.724284353063467" as="geometry"/>
                </mxCell>
                <mxCell id="18" value="" style="shape=stencil(lVbbUuswDPyavGpsyddn4PwHMxSaobRM6eHy9yiElMhpduAttbW1tNqV3cnVy/b2edOxezkdD4+bt/7utO3kumPu99vNsT/pVyc3nVzdH46bh+Ph//5u/P18O0QOX0+H1+Ef3kecZ5I0oNh9fK8Uqv5r5d8I2PX7GUAisbMAR6GsAyJTZQMIFGQ9vgSKNiNHzoH4SsEmxDC+CuVi4gtJBfGZmFuGAgJUkmwA4onTOsC7c4VniiJJgEe4aACxEmcASJS8AWRPCbGkXbMnFE+OQRuUlGABiWIEAJm2z4BMCZyQCxVbg0rFA6nmQNnSmhMJkOrAiZVeirBzedG46KkCWlOlUq028pTkWkqNP9U+HkhDi2bbB7V4QjUUYmn9CQ4oCz+7KcXL8ZlKG1+A/1V5jZ/j1Pc1abcDKUwOvwxY6IgTZWzoag0dHDZPpWh7EDUl4AWdMdGekFQWgNSqXbZDbGgjGgALpZZIHhT9sz2zJ6L1zwAprdu09UjaXoVgaxg6A2rwCynNRu1lmsg3J2RonrSIF3Igo+XMS1PnL1cwTcRZm9Flq1exlbYOHIbx7fxS6QJ+XEtoqJSBmc+XzMw5Ecx45cfOIuGpohX+nfXNMCyQDRbxHvLz5+fRLwD68fMau+93u/ExN99vX2+6NL785OYT);lineShape=1;strokeColor=#CC0000;" parent="1" vertex="1">
                    <mxGeometry x="670.3804514352291" y="12.460270809283884" width="14.343792683360562" height="4.944909075441046" as="geometry"/>
                </mxCell>
                <mxCell id="19" value="" style="shape=stencil(lVbLbuMwDPwaXweiqOe52/5HgaYbo9mkSNPu9u9Lw5A3VGyivckyRyI55FAD373tH193g3dvl/PpZfd3fLrsB/41eD8e97vzeJHVwPcD3z2fzrvf59P78Wn+fn2cLKfVn9PHdMK/GUcesU4o7z7nHU5t52EGHMbjFYAZOSmAF0DYBuQCpwEEl7fti1zAyt7BFcO+wncOIRv+1NCub/YF2Ti/ZiRtTxnRCKDWHiA3kHVDRdERcEUkA1Aw/bsCRAdOZsxV5zSKk9YNcp4GpARvsSA3OA1Y0rBeFkIb9YBg1RGjRA2ISG4bIOexLu1YEKMBSGAdQ6hwhkspoHTNsxT7OiCCddDSPNkCSKlpHig1ZtazRH0MGcXKqtAauu7xRmEUQrnpToOEkhG67kGwKvVGjxKCEW9NSNp/Co32rWbzOkE+mM1GbolwYTk2idpqz6r7OSQUSzESqKtUKQsLQKhFZ8mOuqRetVNpkrAJyD8BBNfqrAFEQywdJtE4nda6KPk6QNq96wVnFx8Rss6rUGMRUXoeakQ1YohwWpKEGIsG3/RnGT2xtceqveubTYZpNEi4qdTsWqFs2FMn2gxvKCSBujESW4bXHwtwek5Ngmr4H/vJGRhsTR1Ufb4MTrL8/+lr5xsAWfx/XD2Ph8P8Nrv+3z/GZGt+yPH9Fw==);lineShape=1;strokeColor=#CC0000;" parent="1" vertex="1">
                    <mxGeometry x="669.5668209756702" y="19.875402393509603" width="12.67395103382114" height="6.366390388480795" as="geometry"/>
                </mxCell>
                <mxCell id="20" value="" style="shape=stencil(lVbLctswDPwaXTEE+D6nyX9kJk6tqWtnHOf194WqoSKS9jq+SaKWBLDYJQZ797p9fNkMYl5Px8Ofzcf4dNoO9tcgMu63m+N40qfB3g/27vlw3Pw+Ht72T/P7y+P05/T09/A+7fA54yyTkQkl5mv+wkzO///yMAN2434NMMShAlhHYiHA5ArgLVkGAKZcA6Ij6y4DXCJxFSB4SiCHkEnqHLyWAeSgATRJ65k+AUAuASyASA4knTxF1wJCuAzITFIT5zJZAwB6AtdJCzGoUk5tSN5TlssANkq1qYkwJCDrrCHXZQqOfASAQKkmIigRKAmh2DQTUwRUp0i+PiFaioDqtOy3aleHekOryN0JgOpoKJo2h5BBfwcKvqsS6A2tOueOB0BcsG2VlGkGGtX9GkH4KxqNlOukp3YFOUQpAlsJQlBZuxMmyYGQkqXUARwQRMqlEVa2EZAe1Oh6YwK9lGNR5AJw0JhUcY0evMocCSiX7l+YtpBpDSk1gIiNSe+PRqKmBHmxSqYDIMUJmdrJ1G4TIM6Fsrzcit/edt77PHHtAlo4BlSbouAlB/VnEJKhXO9/5RY1rVFeuaY7674yB5iyupQUWhJ3XVSmgvMzQCvNRXrnzaI1SB0hgPJZk62tQtkAtw5bCq75HzaDNny64X8N96Z4RAUgN+QrkVhuKKfkbqDCbJlyaf+sGc4PnSCBH0yp+vA94z6Pu908Iq/X25lYP83ztL3/Bw==);lineShape=1;strokeColor=#CC0000;" parent="1" vertex="1">
                    <mxGeometry x="675.0557235720319" y="14.871333716501795" width="13.82479696331302" height="18.58382682258457" as="geometry"/>
                </mxCell>
                <mxCell id="21" value="" style="shape=stencil(lZbdTsMwDIWfprdWYidxcj3gPSYxWMXY0Bh/b49LlVKnqwV3bZMviY993HS0ed1vX3YdutfL+fS0++jvL/uObjrE/rjfnfuLPHV029Hm4XTePZ5Pb8f78f1lO8wcnp5P78MKnyOXI3g/UOi+xi++QMo/X+5G4NAfZ0ApwFEBTJBtgIICsgeKBhDq8ARkoLQOSAyYFSBLeONIcmJXNJAB3ToQC7ikVXIOnEGEAEkHMehQ1gESUVgDCQKtA+gg6cwVDyGsA54gaiAHKMYO3gFrmZghGjF4BNYysTMTIbXm9Q6JIBg7YKmaVCBK5ryRBwTStRElaCvVCVirFMkEJMTSABHIOFKeQpzFUIygC4HXDkoBomEIqeasAfZmLc2qeSKy7eoEUQM5gTe2EA+zBgpCQENXrsMTwNW2VwEpnSZqsVxiozYmR86AbOhKESK3R0oGgMsjEaDloAih8SgDGip5Xw02AZJKy3L/BRaVgaGqsDJ/+UNBoy1h/d1M8wM4Y31e5KA2zuvxhoXbqsRrKXM6ZWhah6Tn6Y7kzB4pDamUZr71I5Hug9jMZ2N+wrbkRGBDfukMyI0+bOgjfaHRRy4ExvoZ6/Asv1aL//eN5A+APPxegB76w2G8P83H2wuTfBovW3T7DQ==);lineShape=1;strokeColor=#CC0000;" parent="1" vertex="1">
                    <mxGeometry x="693.6544474098994" y="1.442542119087193" width="4.572125723319232" height="8.846949619276756" as="geometry"/>
                </mxCell>
                <mxCell id="22" value="" style="shape=stencil(lVbbTisxDPyafbVycWLnmct/IFHoitKiUm5/j8sqoUlPR4e33Wxm7bHHk0zx6nV997Kagns97HdPq4/5/rCe4vUUwrxdr/bzwZ6meDPFq4fdfvW4371t75f3l7vjzuPT8+79+IfPBcdKEo+o4L6WFe/IhZ+V2wWwmbcnAPFUcgdgT7FcBpRExXWAXCiCCKVQ6CNIoqAQUHwHUE/CACAk2gOUnAeASL7nYCucLgM0U+w5WEwGHERH0sYqy2WAFTGnEaCAQ/bEPKakIKXENeMGYHIgJS6U3FhWAdJgqVJrgEAJA2IfQTJ5QDq5KrUGMHmDxqVE0pc1J3IRlDXWzw3gKYEq2QDxMA84JTF5ywjIgLRaX3stWZIByZsp9NLIQikDgBL3pAVH8M44Dp0ztaChbtJp2jAjQT7DVPpWF3MB0Ag9i1AyNCZzFXc2ox6USUzNfUondfi3mtqEtRAKrSzlKoUGSDXopYkY7LiYmpAN/BUQ8thq0ysDcTTp1P1BScFAuGpbbT9Dbz2TnjenBCUyesORmMgDCwi1QydHqKAmUxjqA3Vqf9N+f4ST4+3/va7tgAblt/xjn78VDAyadSe7cT+gG5nED/k4IGl2Nd1fvh7Igc2gdahnAPn8+crzHwB7+L1hPcybzXJBO/0+3shsabnNxZtv);lineShape=1;strokeColor=#CC0000;" parent="1" vertex="1">
                    <mxGeometry x="686.4962108455084" y="7.10560111974587" width="7.330549547786632" height="9.74700629733411" as="geometry"/>
                </mxCell>
                <mxCell id="23" value="" style="shape=stencil(rVZBbhsxDHzNXgmJlETxnKb/CBCnXtS1A8dtk9+X7kKbkPUSLdCbvOZIGnKG1ER3L/uH592E6eVyPn3d/ZwfL/uJPk2I83G/O88XXU10P9Hd0+m8+3I+fT8+Lr+fH66R19W304/rDq8LTghqvqIwvS1fqEDpv798XgCH+fgBwBXYAkqFQtuAKiDVAGqHFJxQCjQL4ARctgHIwGgAvUCXbUAu4wIDIB0yBoAMiS1AoHOQJRD08RGF4nMkyqkGlKGIjVdKAWNNoCXcBXKwf4KUbDxBCeOx2JIx1KgCUGw+GSEHmlCVNhPfeDC6Gd+A7P2bKqJtxwuQzWcj4EDUGb1t9IASEa5AxTNIgYKyJtCWjDNgDgDia8YNSsBZAcVeqSNgkNTcRw5XgDo5OoGByMqUIMfGFKdrhhz4RuuQLWk1WlSHDmIp5LRq/Xb7AnEHdGhBGcg7QerQ+oYT0Dk/gQT7p+HbtQa6f3B/ZeeaqUANWl3yCWIKeyn6ztJklGQjn04SrY52/1/iVdXdjRsMBxo1rznisFfoftU2d71kDUSqGWHLQWWbghp09b4VXRqkbsfLGBbv8ZGmRY8vLj4HGtXh4kSdgaJu2gBthmgQuh3PY5iuRQ47l3o82ZLlFD4prtPaXkg7TY76e/pjAmr3o8AHekSzRVZrRI1C+4hThbKuwZ00S2StievT6jag+hFCGHrnnx+DfwHQxfvb82k+HJan68f//VtVPy3vXLr/BQ==);lineShape=1;strokeColor=#CC0000;" parent="1" vertex="1">
                    <mxGeometry x="686.1423834134946" y="9.489636952419005" width="20.17255240377176" height="10.814124100755407" as="geometry"/>
                </mxCell>
                <mxCell id="24" value="" style="shape=stencil(lVbLbhsxDPyavQ4kUQ/ynKb/YSBOvahjB47bJn8fOotNTK2XSG/yWiOSM0NKA9297DbP2yGFl/Pp+Hv7b3w47wb6MaQ0Hnbb03jW1UD3A909Hk/bX6fjn8PD9Pt5c9l5WT0d/15OeJ1wzOBwQaXwNn1JCTF9fPk5Afbj4QogAi4G0CKqD0hiATLHvA3IiNkAuCHXdQBnCBmAEBqvA1pC7QCMGNcBhVGSAcQQEJwickZgG0J5yOsACmAbQspc1k1ACj1NEkCyDoi04JWQHOViQGlWuYLoCBGVVyt1bQgeQDmxEYqgNadoQbU1FCXaoTUnNOvvEpAdlopmbGvIguykpPanLkJ0zaSsc1dDcXVQN+doadWYTkrqZul0YNdLV27+lLohek1aQZ2ZCoJThA4asjlJBHu81r4IjSlOhEqgroPULY77Mi9aTt3neIO0RCuEtFn823bVlLpBk5CLI8QigtLaHH9rj4oFqHDsTYFbAHFqCHN/fV4QqqQzXBdO0gvF5QjFnh+re35bjmKIsz/mfmTUuZ3WNMvWd8ntHSKUavYHNEdivRlSv9+7SXTASevPd/KvZR65X/mzk08jSO34SY6BOPbXiArAjkW5ItqrUBX25t1/v0m+AdDF1xPocdzvpxfU9f/9k0k/Tc8tun8H);lineShape=1;strokeColor=#CC0000;" parent="1" vertex="1">
                    <mxGeometry x="684.1357930407482" y="21.52291105367999" width="4.197054237012708" height="7.4333682716580824" as="geometry"/>
                </mxCell>
                <mxCell id="25" value="" style="shape=stencil(lVfLctswDPwaXTEkwAd4TtP/yEyc2lPXzjhum/x9obp0RCjeTm6yjJWAxWJBTXL3sn143kwcXs6n4/fN793jeTvJl4l5d9huTruzXU1yP8nd0/G0+XY6/jw8Xn4/P8yR89WP46/5Ca8XXMzU4ozi8PbvDkX+e+PrJX6/OyziRYh1iA8Uwu343ChlF8/5drxGyuPzMxWQTxNKMuafYEJNSdMA4Eqx3QbEcK2wIxJTK/gVrgarKgFAIR2bUIwlXLW2EaBUK6BVe8YdUHHVSaiNNbRGWYAwigcsiPsQwc3nNL9CAUCojK0zpgXQFI2UsXPGtAD12TSUUa0z04BXE5vrXLP5QW8oxGPR1poExBQbqQMUiojWTDxOhCYSAJDoa1CBMyompuABATQu5S7OBaACgM1LGfWtGdaQC4WxcVopgcZlU874hmZqBX3I1zZdAUyKU3KdbplSBACmwCOgQu9LJoTVjEZAq7Su/gWgAWMS7kJYABSk9O7WixFVYBu2DmLxRSMt2QA5w2+JKqhhHlEHYNhpM4HsBsh4AzWYzbgdZyMKi14tURtRSGtbpSSUgZZmAH8GYCvNDVDV3plbIyqjGZdCBQFy34HXrRjgzrIBcm8QewQCpN6m62o3opHzrRpnYsnIWwO10TVMLIzEV3zRMwAtFO4ZL1JSsKjVu73FR9RoUley4C3tXSyaN4P4QMWdJ/EpYHW4Umj0wbuwEYwOb9TGxZP6KeUGOc5bbGjAIqxUx1q5L5WPk4krbihjI/rU2fz/8Xbx/iHwtNvvL98Ry//9h4Pdunx0yP0f);lineShape=1;strokeColor=#CC0000;" parent="1" vertex="1">
                    <mxGeometry x="689.4062792359414" y="17.680918745403005" width="11.889252477919172" height="30.79032801854214" as="geometry"/>
                </mxCell>
                <mxCell id="26" value="" style="shape=stencil(lVbLctswEPsaXTFcLh/Lc5r+R2bi1J66dsZx2ubvs6pGdUjXmOYmU4JJLIBdTnr3sn143kwxvJxPx++bX7vH83bSL1OMu8N2c9qd/WnS+0nvno6nzbfT8fXwuPx+fpi/nJ9+HH/O//B7wVmDlRkVw9uyIoqW/6x8XQD73eEDoIX19QrIEVpvAyQEhNAhLCMWskW7AjQUJQBFjR3AVwo5kyVU6QEFjRypRrQB0CDpNiA35NrX9VKHfyJSQajjFolsoQrTHlCRSZliggyAhES0lorWekBAJkcS59CbwwoiIS2G3NfVBNYIhwzppa6GQJRTB1gP8BUhOlSU1AMUSqpUZKX4FxC5mbzqOu7QCGnPS+tDWgs0kkAk5AHQVsffipwOwrm7OMB6HcwghENzDoP5vG8w0naVB/8LEupaEXqlm7uLCed56IWbWZEdckBqI6AaMZ976epISvIQnYOMpDPZQbzPDEeStVXdimgcEldpr/w0oKD0Vc2KSGS4Gg+SYIRyGMMggsQCjdT7yGj+JUD7/Hu/YPUxxD4JkXoiXvUX4Q3MRlsH3r9sHFV87syTavy+kilS2jq8L3yZvB7LwQ8uCKmPz+Yw9F9E9r2N/nQFMyH86SvPfwD84XLDetrt98sF7eP78UbmS8ttTu/fAQ==);lineShape=1;strokeColor=#CC0000;" parent="1" vertex="1">
                    <mxGeometry x="683.4090784431453" y="19.215169153287434" width="3.9860561929738196" height="12.3805831547038" as="geometry"/>
                </mxCell>
                <mxCell id="27" value="" style="shape=stencil(fVbLctswDPwaXXdAAHyd0+Q/MhOn1sS1M47Tx98XqmrFUCLcaBorgLvAkoPcve0fX3cD09vlfHrZ/RqfLvtBvg3M43G/O48XWw1yP8jd8+m8+34+vR+f5t+vj1PktPpx+jl94feMUwXphGL6838HUv5tPMzxh/F4E58LiF08gdt2fGnIZRVf0nZ8I0h28RlC2/GdkHx8ErSgoF7QxQEsg+o2IBGByCGkodYgRV9zlBka1aRIPkPJSBywlFE9q9VoCjJURfOAxkg90I2RPa/NPhGUlOla8QIQUKC0kbgqqZo0gRDc0atnqYJzAFhaedFB0SMAo/je0ASRMEP3LHFFCwCSQN23a0YLDq0EXbXGtcavZUjoySdACua5KNTHL93+dSMVZH8ACee/VSQvWjIDCDToGeRF41gDmzb1jScKDjrVAM1TqhU94MgsY+UxJcXjaa3tD10ZEsxCNUPxJU0+GJQ0AdInQEBrTcje563IGhtA9bMwKRMAzONWtPaGHrSSGideuBur3ZqezusUEghhA52aB0joAHZ5FA+YGjian+sRF6WtosjEro5142E9YPXT3WMXcA2mwW5j33mawRGlIF+PDQ9F87wm1CzQu7wtPh4bz+PhML9Vbv9fP05sa37YyP1f);lineShape=1;strokeColor=#CC0000;" parent="1" vertex="1">
                    <mxGeometry x="688.5715145408433" y="24.157793952002294" width="5.129705052843519" height="4.680080802017073" as="geometry"/>
                </mxCell>
                <mxCell id="28" value="" style="shape=stencil(lVbZbhsxDPyafSVEUQf1nKb/ESBOvahrB457/X25XawcKvYUfZNlzvKaITXJw9v+6XU3xfB2OZ++7n7Oz5f9JJ+mGOfjfneeL3aa5HGSh5fTefflfPp+fF5/vz4tlsvp2+nH8oVfKy4qpbagYvi93jAV+XvxebU/zMd39sqUs7OPQjUBgFIOHqAU6n1ASxSLA0imxgCgFMUBUqEU7wM4BAo+pmxRAkRrJOoANVADZWoWgY9JI0kGAKbks7abEkBd85hDq1TafUCtVNl3+lqH24hAUr0LK7XeB5ROhQ6Im9ObgGvZe5mEFHjImaKnXzUPIIdsbPI5FMuqQA/FCyIpMWh1btv3Ol8rCUi6JFLvITYKwEPlsXMxEQPN1UY8aE6Igea0bH3tALtBmotj4yRSA2U1crKnRoqQria54htnrRQMUE+NUkhBlRa9DFxSOMqabH3tbFVSNCzrSD6bCwFUSQOx78NSBqCHhf11BAjStAE+eEAANsV5thodFfSBA6VBcQq5VEj8qCx4aAgFn4FJFo2APqk78yplkMCH5SAKeWTzxDPb5NxAz3iMx24yyDdtDOhzW+Du0XH1VEghNuH6ftmsAOGwrW8v/bBt+Jv29jkJgz3aOv/7Ivm3vR2uz5+X+XBYX0/v/x+fS3a1PrXk8Q8=);lineShape=1;strokeColor=#CC0000;" parent="1" vertex="1">
                    <mxGeometry x="688.0526172900018" y="29.453537473141523" width="8.897268244886618" height="5.294807447784024" as="geometry"/>
                </mxCell>
                <mxCell id="29" value="" style="shape=stencil(lVfLbhsxDPyavRISqefZTf8jQOx4UdcOHKdJ/j5cLDa1xPW0vm2UoUhxhg8PsnndP75sB3avl/Pp1/Z9fLrsB/kxMI/H/fY8XvRrkIdBNrvTeft8Pr0dn+a/Xx4n5PT1+/RnuuFjthNybjJi9zkfuOXg5ww/jMcruA9Ua4P3y8EqngtJavBCQW7jpZCLHd7xbXyoy3ULPpAvt/HJE5cGH+H9OZCrHT6B+EsmbuNJ5PJtfM0k0t1fIsAX8m08epAgvrb5VAahg0oxNAYaEYMXq0H1LWPfMa5LyLlec5FJgIW6KK2LlEgCNJDcGORCEchC05RbD0pkQa/O/aurkAdCUgMXeoOCHp2IOw8OSylSbNNaeCmmdQOt5S5LjhLyECh3xGXyiAdjEBirz4TESqW/59FemUEh2bRSxUR3DSmRRwEZYSRMs1GeZ9jBrLa1BaOWaqtHBNK8UqAhU0LiNj1A+2zBBl2X0UabcYF2faxE8nc1yqohIWGYTqxihB7uNbCzQVsA0p4dPupBAHN2uk0FBdJqx6cWFCLOzmctKOTBLgBqEJH6zIahVDpQcWaDudLvekgmSTocAG+ekuuTyugFfUBKfAA5dRTb4tFhFUD8jnzbAFKmDGRkx22CO4+tflm68v/FIwzzY96rGYtoYTAEM1ZQz1eE6TFy0HYK1HDnwvxPuH783c134+Ewr/bX/+93eT2afwfIwxc=);lineShape=1;strokeColor=#CC0000;" parent="1" vertex="1">
                    <mxGeometry x="707.7490299227682" y="12.338371961036728" width="48.32999871568086" height="2.923262181442169" as="geometry"/>
                </mxCell>
                <mxCell id="30" value="" style="shape=stencil(rVjLbhsxDPwaXwlRb53T9j8CxGmMpnGQpK+/72wNbUzaO0WB3pK1ZkWRwxlqd+nm9eH2eb+L4fXt5fhl/+Nw9/awSx92MR6eHvYvhzf8tUsfd+nm/viy//xy/PZ0d/r/+XZZufz19fh9ecPPE250GX1BxfDr9ESjaPzz5NMJ8Hh4OgcEadUAYpVUtgE9SbM7pCpFtwGtSLU75CratgG1Sk8GUIqUsA0oTbQYQM3zyVUAAqgW0FQqyVIqMuwZGg49tgFIYogWMCSlbYA26eoBkWRJg4zhQ8qdZEly8GeO5Mzq19cosW6vDxLs+qI0RUG65VEGFTOpwSTNyjsVJe+vM98rseNk7vXzrulYWydLJwFp9b3WpZIS4wTBkihJJyyNIICtMEpO4sk6f35fH0jb5C7ZxqO080uW4SogiTR+RX1sftAUbD3yabsSCSD5bE2GK1ijLdOrByCiTiIaSbKtQOY6MaAKNqXQJnZmAJplaYtSSJE7tM7qxCL5DFAkuKwODojShwcwnnZ0cvUhVVIHKJsjxpI3ElLrXk1RGbpDm4axAoIkDqiul+vU162Qii0cjLETecShXfd0pY6An7szqTGddMuZ3Q4ABMJWHFEvPIdZSO+eSwiSSUwfUprPUiYAlMmnFa5GyAdAt9TAnp0PPNk1EJyFpXVMVTxjKxup0KLN6jD6IbG0Fj+DoeMaowbYb8+ggWs96lTUb6EkpoVrTgWaJN6jyZ06z1dstpzrUaVj3tLUdgfwURmg+5GhZ6pkC/3dDlECOUNfR5AVEGZP/SdA9tIHm2SuCG44upbKz4AOsnXIZQ4217NUJ5vXOQC1Jw1Rmze5FGhDwDSHZWvMtOUw0DutVMgtyVJax/cVAG0jIWG2c+Mtpitl0+HFTSw2Og9rmgGsWWrUUXADUFe4MUu5eWWw9C6DdhzOEN3FqlKtRJkcl1B7VriUvHzXQj0rp2kHKyBQVyzJj/V4ktkYGieZz/qBaWvDvcVyabkushtx9xYEalCjRlqtkGmnYjyip3fiLpq8eEc6LkHao+1onY50fX25uFtJZGNAvXw/cyt408X72UAJQ1Z3OaQ3h2XGDi6fTPFgrv7iwO8Nw4/QlbrCmd2vo5s0ltBxMdTPy+XWeue1urJ8M0P/9uHp7wD88f6d6/7w+Hj6THb+u/8uhkenb2rp428=);lineShape=1;strokeColor=#CC0000;" parent="1" vertex="1">
                    <mxGeometry x="699.3138035709676" y="16.56146748159449" width="41.22510290011087" height="26.179643270882252" as="geometry"/>
                </mxCell>
                <mxCell id="31" value="" style="shape=stencil(hZbNctswDISfRtcdggBB8pym75GZOLWnrp1xnP68faFqlBi0jd5kGZ9ILrA7nPjhbfv0uplyejufjt83v3bP5+3EX6acd4ft5rQ729PEjxM/vBxPm2+n4/vhefn9+jRXzk8/jj/nL/xeuM7oPFM5/VneSEWjf2++LsB+d7gEGmp3QKmoEdDRqwO0oURABRcH1A5KAUDIyQGtget9oGWQ31IvYL4PVAL5Q9upcrBC6RAegRoA0kDkAV2Fvglwg2QPJGgOAFo1+VCJ0AMgW1+9rCaDBn2YAa+SJlQJt6TiZylBApXs0M0DQmgtlHVYgQua3gdsx8n3gRkpHo2qIxD5wYZPB+A/jiMU3zgR9NhAxa9QBDk4NCU7tW+1ClowfZYC6ue7FmjQOcsZHTxaIMEK89++c/YJDsa1miiDR1toarXveZkudLjtaut1GZegQFibTvGn7nnd5e0B5yuTFqTIQga0K6AEJs1jHLeEFshEPAKmtES6rpPzMUuKHNRbGA8hoKGBrmZVFBLWF78fi4AeSbomylqfS2w3qK8nDb1DFTpM0Rrl92KVvdc4zG0LSfLftxQO6qWvRvysj1xgEam+nob8sofP+8bLbr9friuX/4/3E3u13G348S8=);lineShape=1;strokeColor=#CC0000;" parent="1" vertex="1">
                    <mxGeometry x="766.597339516637" y="6.394747293145429" width="5.534253070231216" height="5.998923722190057" as="geometry"/>
                </mxCell>
                <mxCell id="32" value="" style="shape=stencil(lVfZctswDPwavWJIguDxnKb/kZk4taeunXHc6+8L1ZEqQPJ28ibLWBHHYgEO/PC2f3rdDSm8XS/nr7ufh+frfuBPQ0qH0353OVz1aeDHgR9ezpfdl8v5++n59vv1abQcn76df4xf+HXDMcU2glL4/f6iUIx/33y+2R8Pp4V9LJSyAaRGKdwHJKHYLSCRAABnYjGAWCmW+4DM1IIFJEogBmFKbACVWr1vXxKxjTlPH9i0r4FKtQ4RJ2DfKEdjHyiADPVAjZ0/IsBev+8y2nCRw+zATItGBYSgR4g9IncMECo25hKoZgCI1IstWqAMqta0qPYEzXMHadK/q+2FnqbEbfNCc2LrsEjcNvOK53YvlAEgq8s2iFZgrXOkwD5NpQGAemzJXSp0ibtvt8JTpu+d8M7+RakZBR09maRSAmRSBWDbcJKpoxOExAGYpANApZ49ICONCZPHC5cYnCDJK7GSJQOVUQeKrYN0YuTSSlhV2Co6IXvdK8pf7JJLa+mwqcegHVsTrIOmNToVyFMa7hWuWZeq4AaSaTotACjokXwOwNRRx8XVCZEKyJI2ULIjVJVHAEBbtDqAUEANpCJg01oiZeSSyoxroDbxdxugVLNCJnMPbgOyl29lF+xp3RLEAxjF0Cn31QmIrVq45mNAhRsXjeCzlEDQHwZomZwYaz8IEAFtyGZ7uhYYQ9W0rkQA7W+Np/Exx5Bg4XSiOW3lOg3We5OdLTVSoQbIpy65CaQLEJrTqkLNUmPcQYEulbwCdBKwtKq4u7TqWlzxBArig0YAXikf457WRb67pU8nEFANXVOjPUFloQDy1dVcj9PysZ1VX2fB359FbmFfQQA8DaeFPYOipamks32AOrzaY1Ry0EVAN2BnX6kCf4K/x+jw6kAtVlu9imwAjab2Vu9UxQP0Jzv7ALsmesXWWwYSr+SHjnI8wvp+7HL7f3t9+HeTfjkcj7eL+PJ/f/PWV7dbOz/+AQ==);lineShape=1;strokeColor=#CC0000;" parent="1" vertex="1">
                    <mxGeometry x="758.4221179618528" y="14.429833729946267" width="36.85579355680079" height="24.258513284528135" as="geometry"/>
                </mxCell>
                <mxCell id="33" value="" style="shape=stencil(lVbbchshDP2afdUAAoSe0/Q/MhOn9tS1M47Ty99X2x22lryozdsa6wDSOUdowoe3/dPrbkrh7Xo5f939ODxf9xN+mlI6nPa7y+EqXxM+Tvjwcr7svlzO76fn5ffr0xw5f307f593+LnguEELMyqFX8tKTBDoz8rnBXA8nG4ArUFGBUgEKY4BxNBIAVC2SGNAZaCiAFlWeAwoDDErQI0Q8hiQCVADCKE6V8IElRWgVSAHEBsUnQMTVKdKsUCtGiBZOUkLTYksgD3igLKNb058sTyLVDiM4+9KJBnHOo4P0JKOz9DQiw9aqJz+sT/q/Rv3jLYLalUnFLNDcbaia3J/hzBxia5nQyhO/WMAihYQmgPI3Yc3gOydIDaoNgVX1dwZuqlRda4kRUWyJMTiAprOgaOrUgFEA8hQHFlIDsb7LDx7uqh3wl6ttA3AO+dwb7KbAO6+WltwWMW+3SEhN3sAOs1FhGasRr3MAyugSWDtTgOrRdPs0H1DJDtT0dBPHNwnGp1S98Yg32SsXKA49fxovEgiagKoAHk+EH70CdU3f5aUtXFKcCkosTt3fWVFdI7T5IksWnVyyez0L3mWmzaOWMnrFsR2tMhuA24RkqY5AXkPGloWImTHl0Jq1vsHl2URGdv44KhORFyyjfdsLyYpJt5r12JC07nEpw5hYnIzISTXNXNbM3NXV+12PPfev4oakvd6hLsnvLmToxxAtjFC8ir60WH2PwDy8Xd2fjkcj8voffu/nbVlaZnT8fE3);lineShape=1;strokeColor=#CC0000;" parent="1" vertex="1">
                    <mxGeometry x="769.8388925420677" y="9.476623092323962" width="18.097453103843463" height="23.315793971552466" as="geometry"/>
                </mxCell>
                <mxCell id="34" value="" style="shape=stencil(hVbLbhsxDPyavRISH3qc0/Q/AsSOF3XtwHHb5O/DzUKOKcvsbVfiSOSQQ3Gih7fd0+tmwvB2Ph1/bf7Nz+fdRD8mxPmw25zms35N9DjRw/Z42rycjn8Oz+v/69NiuXz9Pv5dTnhfcYTAvKAwfKwrCFS/Fn6u9vv5cGVfBDgaez2hOICKEJIFVIjoABLUbABc2hFjQIVEBiAFcnYB2bqUA0R2ABnIklRCc/Je0J1LVW8gh9bUti+ABMkJOheQYAEVSnEAAST1AJb7gEQ3Ll1yPwSIJq5algpEpzQEIVvAEpWTB1HWbQwpAztBS4Rkb1Ano0OrMFRb3iytWMYsBcBiyzu7AlKP0dYSRajBSZz0AkI/0wWhUn+DR6vWZug0nSA7mdZC6GqJGYp3Q4WANg8alRNDDOqTre+UgLwuUIDtFTk3iYwBDGxpKpo5T6Ol6eUiCI3aA8TW6K4kh16qqemlAa54GFeT3LSB7DaaMcBJXWQQG3XSFa/3QeoSF9rKWHLAtt2LuO1e3ycrOH0e0LHXvmeTwL4/N4WnD5w4jIZW+Rd5crtxaE/9+TE3cYwzBmT5j8Htebrd97zWosb22uAsoRGy449ukyXUL1ENoJbOHh0+l4nEBuxPJP+fYPTje/zZzvv9Oj1d7/fjki6toxY9fgI=);lineShape=1;strokeColor=#CC0000;" parent="1" vertex="1">
                    <mxGeometry x="778.4432425721134" y="20.650840751420674" width="8.32878844234574" height="5.822271663407946" as="geometry"/>
                </mxCell>
                <mxCell id="35" value="" style="shape=stencil(7VhJcttADHyNrqiZAWY7O84/XGU5VsWxXLKy/T5gVEMLINmJ775RFJqDpRsAueOb18e7l/0uhdfz6fh1//Nwf37c8addSofnx/3pcNarHd/u+ObheNp/OR2/P99ffr/cTZbT1bfjj+kJvy44Eep5QqXw+3Indmrl753PF8DT4fkKwEKtG0DqVOo2IDEJG4BEChkAAuVmAUIs24DYKCYLKBRADDETO5cqRXRCIi4ekNM2oBP3xQHAo0K5+whi2LYXirxIUQc5XdjPd1btA1Ux9txJgP+BQrT2GhF8fgjWnimDeNUf93wlCfAnUXAkrdQaymew9U2ZSoQcdQxSQAeklkDdRhwrdZChwsSW1FFTBFxqhbqNIZYhpHVSh2UV1CfEaqZkjyiaB1C2Fr0Oah3tYxVQ4yjTALRKAvKaNU2WGb1RB2mSRtWl6S0P6wgZUpyP6JB8qpVmydErFdBeVCxso+5CggAL/XdcCJUX2xhaxi4xdVeIMPi1FUO0haiFKqjcW0eZAQyDFh5zZgZE2PS01I4bNVAD3MjJi1RPQDFk1Zztk1VgX1W9BFs4FUQBMRQVhG0DLcHpWbSx24GujaGC+awudZvWrmlFQTcSp4c8Er0OEKo2BtVoAlnKYSFqlRSSqJKZFwDU7yPF5l2CitM2FH3QBcSgEq3s01qRgNifoK0vgW48jUzbXJUaArjEmZKlRm0UADV4LtMVvQW4pFtFWggITZRpDenvAeQ4ttN5BJWxq2zN0WwlqiOjIolq1q0edHYnNNrnCTUD9ATA1rQEaKJBDHU0oavtEDXv9Q0axDxt0OxP+Nig3QZtaSQJBvyxQeMNeu5ts32igrbVTsFyWikF3zuVQVbHPF4T15tdpGztIwlwaNrBbEYD7I1aTzfJ8dqpfHGN6x9taMHQCAUj84o5V4AKsi9+KAssmOq1uP1uUGprW/NrBZyXk/2CEEgx6pB/Bcuw7WrEdfHOhkbHuz+m/AdAL96+3Twcnp4un36u//ffevTW5TsR3/4B);lineShape=1;strokeColor=#CC0000;" parent="1" vertex="1">
                    <mxGeometry x="810.8579350285493" y="1.2158928242511138" width="19.22111248947317" height="19.007866126991985" as="geometry"/>
                </mxCell>
                <mxCell id="36" value="" style="shape=stencil(rVbbbtswDP0avxIiqQv13HX/UaDpYixLijS7/f3oefIi2mYxYG+Kc46kQx6SGvjh7fj0ehgovN2ul8+H7+Pz7Tjwh4FoPB8P1/Gmq4EfB354uVwPn66Xr+fn+ffr04ScVl8u36Ydfsy8WgHTxKLw888XKPn3h48z/jSe7/ClgvR4JsC4T8gVmDtCzEAOIZV2gUbICMT7hMiQa0fQS2LYJ7ASpNccoSSHgMCGkFsYNglUIBmCQHI0EFkNmphM+wQsQNQRMAQIjmpEKHF1hJc5EFppKI4GqKsgVdzHB8hssyCO5EXegic3pghYenwAEsdHdn8RYCegYjMgGjEvAQzcG1sSVCcBKFCDJXgnqATK9krRSYFqkD5GUpoRtyuBgPrylwrJSRprVE1/UR96xakEk7bo+lqvZBqM+g4dDSq6mloTCF5xxhbEu8phz3l1paFCdfqFWiOxJYhjDbFWUrwXpAhoFBQ3bUvHXfAJkiNAa9Psz27thFV/xLbDf8Frs4t96ZQI9Z0c9yekDNkZhJyhmLmG7uSMS/dsBJ0S4vTTnCD0Pk0ti9v43BQuo7lp2pvMuS9Nagduj36290HXc6VA6E2q/dfZX9AWsj/QtBnmaPDeS0Q7VbF4rxOphU3ZYwvYNj5bPLntfRqnfTzVg058ppbQ768PKa8GwmpiihvQf30Lvo/Xxd+H58t4Os3v1vv/7UNVP82PXH78BQ==);lineShape=1;strokeColor=#CC0000;" parent="1" vertex="1">
                    <mxGeometry x="810.6653303175644" y="12.825750599250341" width="9.905456545446896" height="23.8731582107971" as="geometry"/>
                </mxCell>
                <mxCell id="37" value="" style="shape=stencil(lVbLbhsxDPwaXwlJlETpnKb/ESBObdSNA8fp4+/L7UJbk96dojdZ5ixn+NSOH94PT2/7XQrv18v56/7H8fl62PGnXUrH18P+crzqacePO354OV/2Xy7nj9fn+ffb02Q5nb6dv09f+DnjGlMvEyqFX/MNk8ifi8+z/en4emPfM6Vs7GOi3LYBMQQKwSBSoZyAi+YB3MfNOiBStRpKpAg4qegUDaCm8YlVgCjAephuAKUaSboBtDQCtwrI4uOqqhqDuFZi6+Em0uuISEGsi06pAxHEjpJQBg40hpaRFksBiQ5UbBZ6GMW4YR8snyZD0bpgYltHU96B3kzR8pdOHdg34mbthQpKGVN2VVQpVgBo1KoHBBBRlRCKpxRB2amGLF4zA82svWYpaWEX4IGXmC+AOpppCxBtWLUsIgJonq3oztQiEC0jrQugUgOFlO4SpzMKVYYmLtnS01brKNOJ2h2gAkoyFN4wgkEisWnrhQrsneDs0+iOrd50vabdAb4f/KxoeUyDDf6OT1OGwH5J6FLXmhLUmzqwrQBtNbjXxDOSQh15kLvexABdk8HNowznb65j3C57sA9VW1vKLf+ciEGZSiC2HpQkg4FU72awhgF5UMZsExfLWNbrgOZ3ufaSgEot2jp+ccLVrB6yFS0kQPMUdDvAyhhQWzFyhPCaqpmq5bPM5HV7FWztA5zYEv3Exu8KrcpWvD3onKkTxdkL4K+d7koiwSX4v0/af9vr4e/7+eV4Os3P79v//Xtbr+a3Oj/+Bg==);lineShape=1;strokeColor=#CC0000;" parent="1" vertex="1">
                    <mxGeometry x="819.186599527081" y="20.413795748062512" width="14.889150438496927" height="20.694539141746645" as="geometry"/>
                </mxCell>
                <mxCell id="38" value="" style="shape=stencil(lVZJcttADHwNr6hZMAvOjvMPV1mOVFEsl6xsvw8YZmgBMjvlGxc0iaW7B1O+e90/vOymFF4v59PX3c/D42U/5U9TSofn/e58uOjVlO+nfPd0Ou++nE/fnx+X+5eHOXK++nb6MX/h14ITocozKoXfy5MYKLe/Tz4vgOPh+RpQqFlAyhTiNqAzJTEAZoppG9AySTSAUqgCQE2UsgHUSrlsA0qgaFNqjYpsA7KWWAygC3XQpZiJgwFoowNISbteowd0kFKjWn28gDEw9Zv4GLbjExVXgLYIFBCoJxtfiEE+YZBmjU8kYMg6MjsBUZ5m0FBKNp/e4Pfz4OQaX0jA94vXjfK8dCADKtHHB9D/GImLByREOVUV+woyA0D1wtQWRTCyqJxzAKEMOBq715lEEpRSo2aVLDx4uFXDP7NaAZU6AmgTbZekU8VzKO4PQg0A+q2hBjhpNdQbZXJFTHXM1goiaqofs7YoAqaG8XaNz9RgfHBOEcfYN+KbbWjvg1cbTsROOZUKUCb7A0qFI8C5Pho/W50dmJ4eqKG5eC+t6h4AwKvVriegnomAEqVTsDXoGcuAc3VV+gBkpgqK1hLZskLFjfaEHqnblAp18IOeqFlaMzwwZ/u0U0gjw/fjVWZWBnE4wfvxbfjIiA/Q69QKRVw8Ur0ed07GGg/yVyN0ThfgUqQiz8HVi3xO1uPxrZ+IcvP6YBnEOB/xC0KF87pyzVWXxED2H99k/w/Qi7fF+elwPC579/V7v2jro2VJz/d/AA==);lineShape=1;strokeColor=#CC0000;" parent="1" vertex="1">
                    <mxGeometry x="804.0567486079785" y="22.292952399722708" width="20.65508707265508" height="23.515190270814628" as="geometry"/>
                </mxCell>
                <mxCell id="39" value="" style="shape=stencil(lVZJbhtBDHzNXAn2wl7OjvMPA5YjIYpkyMr2+3AyaEWkZyrwbdxmiWSxuEzp4W3/9LqbIr9dL+evu5+H5+t+Sp+mGA+n/e5yuOrXlB6n9PByvuy+XM7fT8/L369Ps+X89e38Y/6FXwuukPQZFPn38hCI89+Hz4v58XC6M49MOVr7SqFtAxJTSwYQKyXZBuRAPRhAasS8DZBEgQ0gN0ogpJKJmwGIhlS2AbVStCSVSh2w1ItnqXYSkEOvVG1Ijal0AGjUbdItDqLXAZ1KtQAZL6uAwDxovyHUKXbRigH0SBG4UEC0MXWhhDw0XwglrmFe2YpJfeYAAEJiC3HHwzoiUxDvQpALLZT4JDrQaw/UsqdJMCAGXwgBAlcA2yZtWhpUiEDJClzV1EFXawBsk25pvKwDkqdVO6IhQKZstTH3HEpaRg/fAaD6boPrLiQ0+1SuYhtCm5QjbIjsAJkKyqH7HJo2BPbQXY8GCrhHxVZaiUbDUpMu7+TNCFB90vNwQ7QWYjc2NCuUtJIYPaCi6fpRQM1UXQPJIHp9BynrTnyFEhgzWYerTboUuIN0a4oFiO56IO95L1tAFrhSQqFqF0SSMW7XPVCx9npNRGAfhvZvs7jBgHRAuFtGKQLaZkq2BkHLCCjlcRrd7HW/AaG+W6AqIiBTHiP3JgnIDlO1Qz6Pk2CDTHeSRNgzkZL9dZ34oAHSmJzDXO9EpGbK3hyeeCTZmUcQ+wdv2v+a68e/8/nlcDwu1/f9//25rU/LqZ4e/wA=);lineShape=1;strokeColor=#CC0000;" parent="1" vertex="1">
                    <mxGeometry x="821.1352460947107" y="32.93020342848604" width="36.23260386621746" height="15.717230545601751" as="geometry"/>
                </mxCell>
                <mxCell id="40" value="" style="shape=stencil(jVdJcttADHwNr6iZwWw4O84/XGU5UkWRXLKc5fcBwyItgGI7N5Ka1mDrBjDww9v+6XU3pPB2vZy/734dnq/7gb8MKR1O+93lcNWngR8Hfng5X3bfLuf30/P0/vo0nhyffpx/jv/we8KVRJVHVAp/pi+xUyj/vnydAMfD6QaQA0m2AKHxdQuQKsViAClTjNuAWEmsSRwpZ3CDWmxNUiMZ+MBCHC2gUuNtgEYpVQPQL71tA2ohEQvoVACgCYVkAJWp9m1AF5+H2qBJMQQKwSBag2GSSN3aJEy5ApsSiY2rVGLgRGMKNq7SiUEx1URsa0OEIvA6CzWbiJs43C+OSEW8ExUVuFaTcyJTBzekRs0yQpb62qKQY4Rm/zOA9aFXyDk1yWWuM0V0g8wxWQCBqsCwuhtaJwG1wXkmzA0gAR+4URIPQLqhMtCdSeoVKiYlhM10j9RAlDLP0rgAMmUQJQW40ugN6oYCsiW14DxkLTUHYCqgvFVLk82DlNnIrTx0x9EGOcqFYvKAijKdKK9uCEC/OfgOoT4URNF+J0rIByVQjD4PCeRBKdptWDXTkHFaCI6i2kexD+JuwH1UKRpdgxCo96wtyvJBGQcbb/XVOnIad2rXFtUkFKURsOI0AmTty9lHKaIWFCl1f0MDYW2B8toHUEu9UHDqjTPdsudDW9repg/W6VZmhtyPUp2FcZk2ZK6uLYq6Rl3zPHTdH086NVsaRUUAOe2lNeOeuJp+xn4BNKPOirIMDhX3XB2M3QSH5+LVZMKwRWtlF2cQtL9EHyA89xT2KqznQYZLJinufAXxKXXW9A/7EW00/eLjk9D5lVQUbL/4zUf1F/9/dy0BFrSed3odVX6RQcoAKyyR4bAwEsTKbyxQTTUF0Q3DmhTkswqLMwmTclwnbRI+WSf/Y//Uh4/t9eVwPE7L7+3vftvVT9OmzI9/AQ==);lineShape=1;strokeColor=#CC0000;" parent="1" vertex="1">
                    <mxGeometry x="719.6974714799114" y="97.23721947659374" width="27.54482507272519" height="23.963579299567982" as="geometry"/>
                </mxCell>
                <mxCell id="41" value="" style="shape=stencil(7VhLblsxDDyNt4REfblO23sEiNMYTePASX+3L1VDLyaf36BdFu3OcTIRORwOKe3SzcvD7fN+x+Hl9XT8tP92uHt92KV3O+bD08P+dHjVT7v0fpdu7o+n/cfT8cvT3fnn59vxl+PT5+PX8R++n3GNqfSB4vDj/E2qFOuvbz6cAY+HpwtADRSCBQRqbRuQC/VoACxUwjYgFSrJh8R9G8CFqg0pCwkDQKLABlA1SHBCjtSrBVRKIIciVC2tpc9vrgK0DinbHAoFUIdWiC2AO2V0wopWzpQAS62uAIGSAECfypmAWEniNqDr/7MnxEwB5NB51nUBMAUgvl6mNhdAIAE59E6NVwCQg0QvvqhiSQCQiYsFJGpAS1Ipi6c1I0AndjkINZC0yBTCUulEFdCqgOak0aijkNpUziLvNNW1xZKTRs1UQT8IE9s6dD0BFy5aXxq1L1Aa3eYgiRjksBbfKCVSK0/1LwBtqQw7jqMHBJBDy1SqD4mRCUQqVhpKdAchVZnavKCV0UBR27KVHl0OWFJAsye0BivdAkVbOHXbjLyVqVlv1TMTorVSsCfUZSZdB8icNxfyRjmomJ0v6QkRGVnz/VCVJSQ+mawvLEVsM9GbgNLAyDW0RS1LPcKhOLzVtWjDdi++cLJM7uuAuurpMjtkqw7JurdaG1p/tNLOvYc94zntaNUTApK3itmFlCmCntYWFVcHmTRsdZyvQ6YGchg97bSkIwbkcB2Ac+i2Hwp27//70l+8L9nC/QP7Ugyra5bKNeANy5U6N1y55if7mJPIZ3T/sT6jemQQ0hiaK59Bd8tSJouX2wkIKevt1ZmrQDceV08npjemr1ei+fVEY4rI+yjZya4zhkEdVoVWFuAU9TdLlVIDpI6AnHlTBgtcrn4JxQSNq7N7EKCOBmL3BGk3IUsKfmVVh2kggb6ah2p6He9W4my1wP1Qp5+31Q5vM2qryebAcTbTFoCdYRS4p2tIfvj0ScPmImNlkSLccceu5p5lEp644ptzvOwgg2mrkCqkVW8zsnopgiH96WvXbwD0w9vj2v3h8fH8Nnf5e/8Yp1+dH/LS+58=);lineShape=1;strokeColor=#CC0000;" parent="1" vertex="1">
                    <mxGeometry x="743.4926785794546" y="101.3931711143864" width="22.400700031400902" height="15.844640087144626" as="geometry"/>
                </mxCell>
                <mxCell id="42" value="" style="shape=stencil(rVbLctswDPwaXTEkAb7OafofmYlTe+raGcdpm78PVIeKCEmbS28yjSWBBbDAwHcv+4fn3RDcy/Vy/rn7c3i87gf+NoRwOO13l8NVvwa+H/ju6XzZ/bicX0+Pt9/PD6Pl+PXr/Hu84e8NVwtlP6KCe/s4oVz+HXy/2R8Pp5l9TsS9fcgkaRuQEtXSAbjQ+HMLECsF7gBSqDAAMInrAOMVfhsglWLsAKmSBy9IpNTHkCtJBQAhl3pWA6RVAkUDiOQBQEmsoQdkCsAlZoom0UorAARNXE9rrVQArX6qnBmggtLwoTkwAzAojdSum8WMHgiUTMiJHIjANQYne6YEKFJ76e19O9nwR3qCimYR+JMo9/EWZSBCQlPvUImtrrZSZoqiyFdFsXwBUaplF4oFfNTVVmHnvjlLbrRttY4YljSqjJtzkTZURsJW86o0yVkHOGJTqBNv60FHWxnanAIUSVU6LJozosQF8r1L3jlyIAivAuTtEwl0pyauLmJAEkYlWpIy7M6yzALsTmcoCk2V/4s9W3XJGeasEPc5TgnL4yQ+01zT4YvkxZPrZ4IOroAyoHXah8wCZ7N4W6daVxnkIC5mgsDeTIsyZXJA8ZLqW9/Lvmnmun21646D/mdpKf2098i+Lu1Rk5WV+1ECVNp8MPYF8KMDLFh+oH2yfDJ5ZK87RG8vcGLORGfqgtYW6w/UNvEmdW+ytOVQNl0MF6+v91/9+Fyenw7H4233nv9vl209ui3qfP8O);lineShape=1;strokeColor=#CC0000;" parent="1" vertex="1">
                    <mxGeometry x="766.321511716355" y="89.37631714691747" width="9.689646800779428" height="28.19428787101515" as="geometry"/>
                </mxCell>
                <mxCell id="43" value="" style="shape=stencil(7VhJchsxDHyNrigu4HZ2nH+4ynKsimO5ZGf7fXoiUxliZrriHHLyTcv0kEA3GiB38er5/uZpvwvu+eV0/Lz/frh9ud/FD7sQDo/3+9PhBZ928XoXr+6Op/2n0/Hr4+35+9PN9OT06cvx2/SGH2ec91LzhAru5+svTXL8/cvHM+Dh8DgDhCJNB0BI4vI2IDYpYQQUqX4bkLy0OgCiE0e2lFV0XCF6yWUbULK4BaDqNqAmUbVbSmEb0IK4NgZdJZAttdR3PEtrqQSQJQcLqGxLRVIcAVkiIa7V/veMuMhiaF0Is6BLo4C0YDolCmhuBIQe1SrAO0jHILQnbmuJOhIRsxQi1ykII6Yqmee1jWlSx/MK6YzqUy+FyBVU6xi0BsmMiCw6Bq1RPCPCrQTNqC5N/IIHJfou2MAoV1D9Sv66C4SexJmYAtFGCtb6oG+WJVVJxvpyZ2bd+uAzC69UsgLqxcSAFagbewneZokR51N/30x8jmzJI61pACQwQwoI/cOPac2RujFC9KMLZBQQYTqmbqUdUDznoUgY3bjANtgKzRJXUpfjujRQwSMPpXZ1bQFMk6tRItnSCqD0Xza3NFYcmpISI5uCHmsatsCCntI6bglOVYj4JuJGLc38eR0BrY1EwG6Z9aGR+2b3xFYIix7UVBqTa+3SuQBADYkaADdGXdF4CXPTqGCoht8zF0DJmYIo1FzhjGZ4KEpdAK6i45ZQcsyN4e4pWwAzJnhl1sUKxGfiggfE4Lm+W7JZYkMcKqjGBQ9EGmjLS6aVr5CXWmI8QK2jz2BwpAVU7MQ01QNLa7Lz/VRxjLjYR+c3FPUbESFYJmBN7AzhYaaGukbnE+2df6YN1lIWY2UqvWWsb2hxptHeMdZPHLYafOk+tf7+bBfAfpjH4O/RMlwfbrbKszjzPGNMkz1teDpFJ7XVjPGQ9E/MFMV4ZO8t6+Ok2sLBYKMkgOq6wC4AlUoyinZsWpWvVBL/dOTzFvB+5Hs/8u3+y5EPHjw2N5yHIlmhJnvxA1MI7Mi3uJYBgPXbrPaWRS/da+tqyRQEYmAlh37rvc1SIFpCgTWTVt9b0YZcrc+gZXtGXHehmVip9vrd2eX51HvLRueJRtvaz5jrrFkjnmZF8n4IdZQRDEBJgoo9f047pPvRxRGa5bN0C708z+OtfXa/PB9op1ooCJ3QsdK3VoFO60mjgoCMQU43uGw2euuV718A8OHPDfPd4eHhfEE9/9/eSOOn8212vP4F);lineShape=1;strokeColor=#CC0000;" parent="1" vertex="1">
                    <mxGeometry x="771.5504264661743" y="101.12767858083839" width="42.792885782856956" height="19.25927365327675" as="geometry"/>
                </mxCell>
                <mxCell id="44" value="" style="shape=stencil(lVdbctswDDyNfjEkAT7wnab3yEycWlPXzjhOH7cvOCqdAJaQ5k+isCIeiwU54d3L/uF5N6Xwcjmfvu9+zY+X/YRfppTm4353ni/yNOH9hHdPp/Pu2/n0enxc3p8fumV/+nH62f/we8FxhNo6KoU/y0okwGXl6wI4zMd3gNzG5yugAfM2gCIQKkBCQNoGpApNAzBCKtsARAhBAWTP6gCIILAGMDTHpZwhaZdkheM2oBQoSQEKQnGyVBNkDagE7LhUpA5FAVoBdHboHpMCMI1Er6eVIeossVS6bgOEOS1raoQwSrOOCBB1EMyQHZ8khmxdCk7QCYqJOUNz6hYga3JzGjtu2BvmNYbq+BOs/1K04qRUOkWzoiFwclgBTfvfolvjKJ1lHApQnARFqUCzAE8vekqLdSl6JSPbCU1q4MQgekG6yC0PyVkHMASzQ/sQYDohulkSl4rhKQ0mbgXdDFErJKdzOpNuOid4lS5AyQK8tAo1CltAc1wSh6vtTZ/b/1J4tS8ja+sOQTT2+FFvmoDD0KcNezJEra5kpyG3V3sas3RDu7KxT4O4q/aiJIbWwZ05Ir8ULMAbtH3S82cAKCHrElR2JwIhJL1DTe6Qkh1IA0p2B0JkQB10LhCdKghLtX6Jj96cJYj6/5iHPm0l1Yy0TiwvZNE7ndQuyh6PEJo5WwA5vOgjRnsUIHn2PE5bb/beEBctbDf/dzIkUmhK5velyAKZY4Vv3yBqIcKxsG7P9kQrfexRLtxM/eI3Mo8D8rXPXG3vDhltB/bsJWB9OhUGkZ9R0/gxQfVSRPb8G9E9YX/6WvEfAHl4u8U8zYfDcgl6/93eemRpuTHh/V8=);lineShape=1;strokeColor=#CC0000;" parent="1" vertex="1">
                    <mxGeometry x="793.4528877727753" y="95.69018503532652" width="19.4424171412154" height="28.93686580845042" as="geometry"/>
                </mxCell>
                <mxCell id="45" value="" style="shape=stencil(lVfLctswDPwaXzEk+D6n6X9kJk7tqRtnHPf194WqIS3A0ra5yTJXAha7ALQLD++Hp7f9jt379XL+uv95fL4eduHTjvn4ethfjle52oXHXXh4OV/2Xy7n76/P8++3p+nkdPXt/GN6wq8ZFwO5NqHY/Z7vcKUQ/t75PANOx9cFIDiKGhAjJbcN4Eg+K0DKEOALpaIAhSkxCInJRw1IlPM2IDbKTgFyIweSTq1zMgAjq1WAROxYJx0oRQCQAKqmlamhNzgqSQGCpwDekDxVTSsXygAQK3kjjUwF1EGE0HSlpfYxAQB3IQyAJ4cK5y1LPlNDITmqWhqecUjCklcAYQEoQ/xTjR0oAnHHTFWXzUOpJtcf18+7XpX186LLZM+DfFPpJb3Fg3SaRXbB5MsenGerutIJWz8fqOl8pWAoYQEUU+EMGZWIgtYQD5Fsmb8ZgORcAUBsYgASElCp9AavizBZE8la+lGzAA9CiunOmgl2C9E1m5CYGNRBjBO1MLwMEuRlZ1nyUntszaBzaHAsTKNNvyBRQs9PVAypFBFFrVN+s1pCQ4SttB050Co+el6GntNWi52A1fO1dqcvrIa836oNaJJp2QZ4NyIeIRVYsyYNXrevnHrDWU969P/RX8SuqIEVCqbB577RbLnZeK0x5FV0xDrpNhrC+v4SrdcWxK0TK6/QpW6NIuD1rg41Qm17a4XMeGdzxFpLwgKUhoxVHZGsLwW4U8xuB1WEdpvWobtJUtEaKV1Yk+plNoPZFpJNWmhoqNCivXIHAEmH1qu0CAklHccOuEg6I7FyD2BBKxwM0W6FMm+R9Kat0CRdoR0m/+iQeJRyC2CWbZatDLE05vdiQPM/RsmHvpL+AyAXt4+yl+PpNH/TLf+3H3Fya/4ADI9/AA==);lineShape=1;strokeColor=#CC0000;" parent="1" vertex="1">
                    <mxGeometry x="819.549503244353" y="99.03103129359715" width="24.311099479403765" height="20.38855549448772" as="geometry"/>
                </mxCell>
                <mxCell id="46" value="" style="shape=stencil(lVfZctswDPwavWJIALye0/Q/MhOn9tSNM457/X2heiiLsL2ZvMmU1sSx2CUneXjfPr1tJg7vp+Ph++b37vm0neTLxLx73W6Ou5M9TfI4ycPL4bj5djz8fH0+/357mr+cn34cfs3/8OeM00SSZhSHv+eVyJTC/5WvZ8B+97oGCGkdAFyIEwAwSRgAmikgQKBYBkDOlPk+QBIlHQDVVgCAMxUZAK1Rk/uATBrHIoVAAVRpebtExLBImaSNKWtfufl9rB6QAkkFNYpUxqIqBmihPAKEqYKiZqY8MoktyHwfYE2KPAKUKki6NspjG9jYq/cBTaiMxJi5CkJqpTNzSTqQAmIYb3jMQZQSAKyIsyAaRbyFjFvokta9JHhMwnqJ6tqUwljXFCmCHeoyLQtAKAJ6W6tVPaBEAIgUxqQTUwGdK8WTyQZCwYQWpZi9LFUwEIV9DqZsCYXEvYhLpws1FJJ4pRSBKlASlVEFuJEiQPNqz1haq/TXq5ELoEq1+qRnAKL3VVlntS0AYO6RfdJIW1ulrL6sKIfZDFwfCiUUUutkXlGDUdK1B7AiX0IjmojHkIzeEeUQfadtgDKa6UzNAaz3SI0NkD8DyOJdNBUqgHymQnncIUdKyOSy96wSqII+mOG0sQ/m0xVUyQ5HzoJMeDKY6Wi6NDbOfLIgZ29dhdZyD+jNC9VWNio4aXe+arCqsyu7nOHZx+Y3OKHsfbz9ffFHE4Y84qvxjH04brOCvYEGYvD/5uCuA/isZ+LgFCz02bv9feucvMQvYAw0erc1joJ66pVmKzQ2Ve8iHxzoUz84XviDZubzV4yPAfZwudG87Pb784Vo/d7fgGzpfHuSx38=);lineShape=1;strokeColor=#CC0000;" parent="1" vertex="1">
                    <mxGeometry x="842.7991409559936" y="94.78700690471305" width="20.717854274100546" height="20.047528723177038" as="geometry"/>
                </mxCell>
                <mxCell id="47" value="" style="shape=stencil(lVZJchsxDHzNXFHEwu3sOP9wleVIFUVyycr2+2AyoSKCM0h8G1FoYmmgiYkf3vZPr7uJwtv1cv68+354vu4n/jARHU773eVw1a+JHyd+eDlfdp8u56+n5+X369NsOX99OX+bb/ix4DAECGGGUfi5HEVI8vvg4wI4Hk53gFKBubMnhhwdgECuHYDVQ3UACKF0AMkQwzYgJyjUp6BBkgNASH0OOUBxkk4FSp9DrlDyNkAYqPdQK6ATktYExQKKA6AElDvAHZWrCNQqDjGltA3QAGJvr2VgJ2kI5n716BAdIPU81wTBtUcTj4A48RNIT1qlRuN6W7TbbvYI0ekKFIgmoNBO1gNiO2sKCE5FGaHyAHC6QgIIDiF5nOUhB3SHLRIkHKrqJB0jBNPZ0oJcB8jgIblVighsPGSXB1EBMjyUJlLrPGSopjWqq5I6O9SX9V/Tqd3Ngwtv2pDWJMYjAjLZpIPX3sP4pEbMxnja5lbmHXu939hzO9mIPxqWsbGyVaBx2jyVR72vvgsQQXoF02fhz9u1RXLuSdaHJ3gSlqzmRe1UTzFUJPscdMK9vmOG2Ic0P0UeIAP3SavQVmd4hFof30Jyh00EqG/UW4hbEoYmIBBfLkzG2one3GS7jwR3f0naxmLsyVtfgn3JfaXImm8y9h5hRfczNPaewuuGN9QHnV1H5dzIL7lDoOJc+rlk//5qhUtaB65P5XtX2v8A6MffDfrlcDwuC/j9/3bj1qNlW+fHXw==);lineShape=1;strokeColor=#CC0000;" parent="1" vertex="1">
                    <mxGeometry x="871.7420430639233" y="91.13121258835281" width="6.52219902155025" height="35.832302891585414" as="geometry"/>
                </mxCell>
                <mxCell id="48" value="" style="shape=stencil(lVfLctswDPwaXTEkwOc5Tf8jM3FqT10747ivvy9UDx0DsrbNzZa4ArhYLMhJHt62T6+bicPb+XT8uvm5ez5vJ/k0Me8O281pd9ZfkzxO8vByPG2+nI7fD8+X/69P88r517fjj/kLvy64ziRxRnH4fXnCkVL9++TzBbDfHW4AtZIUC0iU8zqg5PG9K6BR6+uAnCixAUiimNYBSajalFIgBhFEKIkFVBiBAzULKJE6gwiJpBlADVQC2LRQsyzVRAFEqGV87wbQ2jqgBQoupUwlAoBQdIBKGUij5fF6ADRmRilVCnYPTXkDLClArDRaIwGFa4WyjTALHkVIVGyEnqmiCNEXrreR5P3CNcpWrb1TBQ2kZQrsAR3soUYq4lNCeyj62gEKJRChqPiSBahYwKbLUhqdGLuG24OqKwItaUrNSSOSoAjd06qViQXS2hcN1AGt+jpZb9UW7QKl0bOPwIDWxsQuQqEKnE/l7W2mU0Ituqi02kL4R4s6QKGOUipjGly1FKHzqRDEstS1adEeeNGiFfqSclItrdpxCZsxW5uJIUCaPo7IkXL3STEASFsQW6kAgXOl2jyxSE1RK+usLMCzQPXWp2JCHRTGkL2qVQYJK+vdPCn6BEwstRQrDD0HJJBPFBLrSlIGZ/cpFX9wmElGB4c8xtMVEMZh5f7hp/pu0CQb2EPu3mQaMXIx8UUQ7BgqO/v9MFi+u167PbJbj/pAJ407gCpBQNU6v5M1JG0kQKg2CbsaU0Trm3dIPKi0a7MbI6Mr7msuLFQdA86oe7+LDOf/u5FcAXmQsLbnYDmKFd4a5vOELXLso5XuA9IQ2U0fIJP/8EXmPwD64/3e9LLb7y/Xrtv3/p6ljy53NHn8Aw==);lineShape=1;strokeColor=#CC0000;" parent="1" vertex="1">
                    <mxGeometry x="855.027503447855" y="109.25930775283564" width="22.712445939502913" height="19.790509227821303" as="geometry"/>
                </mxCell>
                <mxCell id="49" value="" style="shape=stencil(lVjLctswDPwaXzEk+ALPafofmYnTeJrGGcfp4+8L1aViQNKmvcmyVgSxiwWoXbp5fbx72e84vJ5Px6/7H4f78+MufdoxH54f96fDWa926XaXbh6Op/2X0/Ht+f7y++VuenK6+nb8Pr3h5wVXAnWeUBx+/b3TSOqfO58vgKfD8xWgMqVuAZWkbANapl4sIFHO2wCJFKMB5Ew1gBUCcTOAxBQBoBSSbACcKfZtQNYsBQvgEeQqgIWKDYk1Sw0AeGxx3kOhLtuA2KlXm6VOAjbNkVgMoCYKCQDaSOIAtEgVMJ0jBSuNlogBoOj7LA8qlgAAVUOyWmplyHFLGtUBKjEDQKJmxdeEGNSDvi/YPah+GYXUKFkeJEOmFVBsWkUG91shuU13JgFq1axXq6VeKaIsRZJkASp4RJxQdiv0UYPrgEzSFwDkS5FK8CFVsOkiXny6aUYATWvyae0gS2ozjgfpo0I2fcmuIAXajHp1dIAI66F0yhag8k6IB6Zs1ToVEDCyWrwvfVCitVOJHoCMrDE1t0Ib6loHaADWjCVAu9f3BUec2gIKqS2YbkMsmys4ecfRMbb24IjrBfY4zZI4E/igsXeqdhLQioM1rc5n0xpDoABimhDyXwjtaW480arOIKgkC99Qv0Vdri4AmmpQczH5tjjZMfDvRH2h7wKenzNyNZGhPh28lDL2sehnmaT9B3nGsNHrYQlwFuOYdGaW8+B9nQKtRlvQdfjgekLDYHSOCCZI5xLnYVh0RQ2mu+cr8Hmdo7qNJw2H2poxshW1QP+SxWyoCUUe3MOCsghX0M7nNPqe43WOw0KlWqpoqu/sy0Y7RUJDyew+c90oL6jzzB593UhQf2Zi1wzrYH4doEJdNMMKlJ1lDJtXgACypKWbFxOxoJOJ1q4tNlVXQo6aSNwedGQA2lAA25C0U8DDUvKGpL7fcUiuHnT6gweN7InTMQW1qqyWbrNUAzUgjayWay1JJyfGTPtztEB5Twdvu4cPDt7/cFLXi/dz/sPh6enymeD6f/9dQG9dvimk298=);lineShape=1;strokeColor=#CC0000;" parent="1" vertex="1">
                    <mxGeometry x="866.1500118711376" y="102.07869256050685" width="26.078049359545503" height="23.35221860300703" as="geometry"/>
                </mxCell>
                <mxCell id="50" value="" style="shape=stencil(rVfLjtswDPwaXwmK1PO83f7HApttgqbJIpu+/r50DacRnYwRoDfH0VgiZ4akBn362L68bwbhj/Pp+HXzc/d63g76aRDZHbab0+5sT4M+D/r0djxtvpyO3w+v0+/3l3Hl+PTt+GP8wq8JFzKpjijh39MbyZTj3zefJ8B+d7gGJKq5A8REnCGgxQ6QGkkBgEyhB5RAceVIoQPUQiwQEGq/g73h+wAR4v5IOVEEMShTSH3QSqUCQKXCfVot6HQfEIsHSKMAeEiWk/5IoZLofUCO1HppBKYEstSYYp9WJkbrlbS49QoO1PLM6uVAlEGKWvVCUqro+41Sr6MVK/AlvhnQIMnjBo4CmXN8LwLpNzDpFkCypSg4QKEGhGocxJ6D0EiBd4zk1Dwgt/sA82KJHoDcWRNJ8jEo2sF05AARBl2FJHseOEAA90FXqCRbX539qQCl1uhZUFiPaqbiWIPerya83jlWnxDJQnGxHjl5UVDtPCCfrXinKZSEGceXU+z85nuOlVf8/epsE6ihAOpC1JEqsn6m6hgr2Gdx1vxVuW5oh0DJidqM+T8BNZD2AKMZxZDbrLILzQxrRWbPQ+RZibeb2kKo9gb1qBjn2eOqkyPraPbVqJh4QZZMauqmkQqlYVJLThqMGyfP1e3SdgQWSDNvL6WVgYq99FYmNvbVa2UkXLTNlUbLJL3ZxOoljNe53+Y3NK2Jn4zsCwXkXym5wajNDeW2Sr3mxskLrC+Lanrpobed7KvjynpTHOdHDmTt0ddHHLFVQ6mPpNTmmug0gTmzW4JrySYK5PzHbzrrAHv4d7F62+33073s+n9/EbNX0yVOn/8A);lineShape=1;strokeColor=#CC0000;" parent="1" vertex="1">
                    <mxGeometry x="899.9007950287537" y="101.16157729547467" width="25.709504565887073" height="23.417706916710813" as="geometry"/>
                </mxCell>
                <mxCell id="51" value="" style="rounded=1;whiteSpace=wrap;html=1;fillColor=#FFFFFF;" vertex="1" parent="1">
                    <mxGeometry x="50" y="200" width="308.42" height="130" as="geometry"/>
                </mxCell>
                <mxCell id="53" value="" style="rounded=1;whiteSpace=wrap;html=1;fillColor=#FFFFFF;" vertex="1" parent="1">
                    <mxGeometry x="450.13" y="270" width="279.87" height="110" as="geometry"/>
                </mxCell>
                <mxCell id="54" value="" style="rounded=1;whiteSpace=wrap;html=1;fillColor=#FFFFFF;" vertex="1" parent="1">
                    <mxGeometry x="50" y="350" width="308.42" height="130" as="geometry"/>
                </mxCell>
                <mxCell id="55" value="&lt;font color=&quot;#cc0000&quot;&gt;order&lt;/font&gt;" style="text;strokeColor=none;align=center;fillColor=none;html=1;verticalAlign=middle;whiteSpace=wrap;rounded=0;" vertex="1" parent="1">
                    <mxGeometry x="70" y="210" width="60" height="30" as="geometry"/>
                </mxCell>
                <mxCell id="56" value="&lt;font color=&quot;#cc0000&quot;&gt;sales_order&lt;/font&gt;" style="text;strokeColor=none;align=center;fillColor=none;html=1;verticalAlign=middle;whiteSpace=wrap;rounded=0;" vertex="1" parent="1">
                    <mxGeometry x="60" y="360" width="60" height="30" as="geometry"/>
                </mxCell>
                <mxCell id="57" value="cart" style="text;strokeColor=none;align=center;fillColor=none;html=1;verticalAlign=middle;whiteSpace=wrap;rounded=0;fontColor=#CC0000;" vertex="1" parent="1">
                    <mxGeometry x="480" y="280" width="60" height="30" as="geometry"/>
                </mxCell>
                <mxCell id="59" style="edgeStyle=none;html=1;fontColor=#CC0000;" edge="1" parent="1" source="58" target="51">
                    <mxGeometry relative="1" as="geometry"/>
                </mxCell>
                <mxCell id="60" style="edgeStyle=none;html=1;fontColor=#CC0000;" edge="1" parent="1" source="58" target="51">
                    <mxGeometry relative="1" as="geometry"/>
                </mxCell>
                <mxCell id="58" value="&lt;div style=&quot;color: rgb(212, 212, 212); background-color: rgb(30, 30, 30); font-family: &amp;quot;Droid Sans Mono&amp;quot;, &amp;quot;monospace&amp;quot;, monospace; font-size: 14px; line-height: 19px;&quot;&gt;&lt;span style=&quot;color: #dcdcaa;&quot;&gt;add_line_items_from_cart&lt;/span&gt;&lt;/div&gt;" style="text;strokeColor=none;align=center;fillColor=none;html=1;verticalAlign=middle;whiteSpace=wrap;rounded=0;fontColor=#CC0000;" vertex="1" parent="1">
                    <mxGeometry x="220" y="230" width="60" height="30" as="geometry"/>
                </mxCell>
                <mxCell id="61" value="&lt;div style=&quot;color: rgb(212, 212, 212); background-color: rgb(30, 30, 30); font-family: &amp;quot;Droid Sans Mono&amp;quot;, &amp;quot;monospace&amp;quot;, monospace; font-size: 14px; line-height: 19px;&quot;&gt;&lt;span style=&quot;color: #dcdcaa;&quot;&gt;add_line_items_from_issue_cart&lt;/span&gt;&lt;/div&gt;" style="text;strokeColor=none;align=center;fillColor=none;html=1;verticalAlign=middle;whiteSpace=wrap;rounded=0;fontColor=#CC0000;" vertex="1" parent="1">
                    <mxGeometry x="165" y="360" width="260" height="30" as="geometry"/>
                </mxCell>
            </root>
        </mxGraphModel>
    </diagram>
</mxfile>